<svg width="100" height="60" viewBox="0 0 348 110" fill="none" xmlns="http://www.w3.org/2000/svg">
<g filter="url(#filter0_d_2205_1256)">
<path d="M46.202 77.1314L5.08879 77.2156L4.94261 5.829L46.0558 5.74481L46.0812 18.1471L20.1047 18.2003L20.1368 33.8741L44.3067 33.8246L44.3321 46.2269L20.1622 46.2764L20.1999 64.6846L46.1764 64.6314L46.202 77.1314ZM90.8634 21.4246C96.6902 21.4126 101.381 22.9981 104.936 26.1809C108.49 29.3312 110.275 34.4057 110.289 41.4044L110.362 77L95.4695 77.0305L95.4042 45.1458C95.3962 41.2396 94.674 38.2951 93.2376 36.3123C91.8338 34.3295 89.6183 33.3412 86.5909 33.3474C82.0336 33.3567 78.9281 34.9093 77.2743 38.0052C75.6205 41.101 74.7995 45.5623 74.8114 51.3891L74.864 77.0727L59.9715 77.1032L59.8597 22.5135L71.2366 22.4902L73.2529 29.4685L74.083 29.4668C75.251 27.5763 76.6964 26.0434 78.4193 24.868C80.1747 23.6926 82.1097 22.826 84.2245 22.2682C86.3718 21.7105 88.5848 21.4292 90.8634 21.4246ZM141.71 100.959C134.093 100.975 128.263 99.6522 124.221 96.9912C120.212 94.3627 118.202 90.6558 118.193 85.8707C118.186 82.5829 119.206 79.8302 121.252 77.6125C123.298 75.3947 126.306 73.8098 130.275 72.8576C128.744 72.2097 127.407 71.1545 126.265 69.692C125.123 68.197 124.55 66.6194 124.546 64.9592C124.542 62.8759 125.141 61.1494 126.342 59.7797C127.544 58.3775 129.283 57.0068 131.559 55.6675C128.691 54.4364 126.409 52.4554 124.71 49.7245C123.045 46.9935 122.208 43.7725 122.2 40.0616C122.192 36.0903 123.048 32.7194 124.768 29.9489C126.52 27.1458 129.054 25.0085 132.372 23.5368C135.722 22.0651 139.789 21.3244 144.574 21.3146C145.583 21.3125 146.755 21.3752 148.09 21.5027C149.425 21.6302 150.646 21.7742 151.753 21.9347C152.893 22.0951 153.658 22.2237 154.049 22.3206L173.092 22.2816L173.107 29.8499L164.567 32.0647C165.351 33.2675 165.939 34.5521 166.333 35.9185C166.726 37.2849 166.924 38.7331 166.928 40.263C166.94 46.1224 164.898 50.7001 160.803 53.9963C156.741 57.2598 151.08 58.899 143.821 58.9139C142.096 58.8197 140.468 58.6929 138.938 58.5332C138.19 59.1207 137.622 59.7404 137.232 60.3922C136.843 61.044 136.649 61.728 136.651 62.4442C136.652 63.1603 136.946 63.7619 137.533 64.249C138.153 64.7035 139.065 65.0597 140.27 65.3176C141.507 65.543 143.037 65.6538 144.86 65.65L154.138 65.631C160.127 65.6188 164.687 66.8952 167.817 69.4605C170.98 72.0256 172.567 75.7984 172.577 80.7789C172.59 87.1591 169.931 92.1124 164.6 95.639C159.301 99.1655 151.671 100.939 141.71 100.959ZM142.325 91.2412C145.873 91.234 148.916 90.8859 151.454 90.1971C154.024 89.5408 155.991 88.5928 157.356 87.353C158.721 86.1458 159.401 84.6958 159.398 83.0031C159.395 81.6359 158.986 80.5463 158.17 79.7341C157.388 78.9545 156.182 78.4036 154.554 78.0814C152.958 77.7591 150.907 77.6006 148.4 77.6057L140.686 77.6215C138.863 77.6252 137.219 77.9216 135.756 78.5105C134.325 79.0994 133.187 79.9155 132.343 80.9589C131.499 82.0349 131.078 83.2727 131.081 84.6724C131.085 86.7232 132.065 88.3325 134.02 89.5004C136.009 90.6682 138.777 91.2485 142.325 91.2412ZM144.633 49.8302C147.432 49.8244 149.481 48.9576 150.78 47.2297C152.078 45.5017 152.724 43.1567 152.718 40.1944C152.712 36.9067 152.023 34.4504 150.652 32.8256C149.314 31.1682 147.295 30.3422 144.593 30.3478C141.858 30.3534 139.809 31.1876 138.445 32.8506C137.082 34.481 136.403 36.9401 136.41 40.2278C136.416 43.1901 137.088 45.5324 138.426 47.255C139.797 48.9774 141.866 49.8358 144.633 49.8302ZM197.129 76.8223L182.237 76.8528L182.081 0.876414L196.974 0.845919L197.129 76.8223ZM227.584 22.17L227.696 76.7597L212.803 76.7902L212.691 22.2005L227.584 22.17ZM220.118 0.798526C222.332 0.793993 224.237 1.31093 225.834 2.34932C227.432 3.35517 228.233 5.25783 228.239 8.0573C228.244 10.8242 227.451 12.7464 225.858 13.8239C224.265 14.8688 222.362 15.3936 220.148 15.3981C217.902 15.4027 215.98 14.8858 214.383 13.8474C212.819 12.7764 212.033 10.8574 212.028 8.0905C212.022 5.29103 212.799 3.38513 214.36 2.37282C215.953 1.32789 217.872 0.803125 220.118 0.798526ZM281.422 60.4387C281.43 64.1497 280.557 67.2927 278.805 69.868C277.085 72.4105 274.501 74.3527 271.053 75.6944C267.605 77.0035 263.31 77.6634 258.166 77.6739C254.358 77.6817 251.086 77.4443 248.351 76.9616C245.648 76.4788 242.912 75.6706 240.142 74.537L240.117 62.2323C243.082 63.5609 246.258 64.6611 249.645 65.5331C253.065 66.3725 256.061 66.7895 258.632 66.7843C261.53 66.7783 263.596 66.3509 264.831 65.502C266.099 64.6205 266.731 63.4799 266.728 62.0802C266.726 61.1687 266.464 60.3554 265.942 59.6404C265.452 58.8927 264.376 58.0648 262.714 57.1567C261.052 56.2161 258.446 55.0008 254.894 53.5106C251.473 52.0853 248.655 50.6425 246.438 49.1822C244.254 47.7219 242.623 45.9999 241.545 44.0165C240.499 42.0004 239.973 39.4461 239.967 36.3537C239.956 31.3081 241.902 27.5118 245.803 24.9647C249.736 22.3851 254.991 21.0885 261.566 21.075C264.952 21.0681 268.175 21.4033 271.236 22.0806C274.33 22.7579 277.506 23.8419 280.764 25.3326L276.294 36.084C273.59 34.9176 271.033 33.9626 268.622 33.2188C266.244 32.475 263.819 32.1056 261.345 32.1107C259.164 32.1151 257.52 32.4115 256.415 32.9997C255.309 33.5879 254.758 34.4842 254.76 35.6886C254.762 36.5675 255.04 37.3482 255.595 38.0306C256.182 38.713 257.291 39.4757 258.92 40.3188C260.582 41.1292 263.009 42.1821 266.202 43.4777C269.297 44.7409 271.985 46.07 274.267 47.4651C276.548 48.8276 278.309 50.533 279.551 52.5812C280.792 54.5969 281.416 57.2161 281.422 60.4387ZM307.813 0.618952L307.845 16.0974C307.851 18.7993 307.758 21.3711 307.568 23.8129C307.41 26.2546 307.284 27.9801 307.188 28.9894L307.969 28.9878C309.137 27.0974 310.518 25.5646 312.11 24.3895C313.735 23.2143 315.524 22.348 317.476 21.7906C319.428 21.2332 321.527 20.9522 323.773 20.9476C327.712 20.9396 331.148 21.6324 334.08 23.0262C337.013 24.3873 339.296 26.5474 340.929 29.5063C342.563 32.4326 343.385 36.2395 343.394 40.927L343.467 76.5227L328.574 76.5532L328.509 44.6685C328.501 40.7622 327.779 37.8177 326.343 35.835C324.906 33.8522 322.691 32.8639 319.696 32.8701C316.701 32.8762 314.343 33.5809 312.62 34.9842C310.898 36.3549 309.681 38.3919 308.971 41.0952C308.26 43.7659 307.908 47.0381 307.916 50.9118L307.969 76.5954L293.076 76.6259L292.921 0.649447L307.813 0.618952Z" fill="white"/>
<path d="M46.202 77.1314L46.204 78.1314L47.204 78.1293L47.202 77.1293L46.202 77.1314ZM5.08879 77.2156L4.08879 77.2176L4.09084 78.2176L5.09084 78.2156L5.08879 77.2156ZM4.94261 5.829L4.94056 4.829L3.94056 4.83105L3.94261 5.83104L4.94261 5.829ZM46.0558 5.74481L47.0558 5.74276L47.0538 4.74276L46.0538 4.74481L46.0558 5.74481ZM46.0812 18.1471L46.0832 19.1471L47.0832 19.1451L47.0812 18.1451L46.0812 18.1471ZM20.1047 18.2003L20.1026 17.2003L19.1026 17.2024L19.1047 18.2024L20.1047 18.2003ZM20.1368 33.8741L19.1368 33.8762L19.1388 34.8762L20.1388 34.8741L20.1368 33.8741ZM44.3067 33.8246L45.3067 33.8226L45.3046 32.8226L44.3046 32.8246L44.3067 33.8246ZM44.3321 46.2269L44.3341 47.2269L45.3341 47.2249L45.3321 46.2249L44.3321 46.2269ZM20.1622 46.2764L20.1601 45.2764L19.1601 45.2785L19.1622 46.2785L20.1622 46.2764ZM20.1999 64.6846L19.1999 64.6866L19.2019 65.6866L20.2019 65.6846L20.1999 64.6846ZM46.1764 64.6314L47.1764 64.6294L47.1743 63.6294L46.1743 63.6314L46.1764 64.6314ZM46.1999 76.1314L5.08674 76.2156L5.09084 78.2156L46.204 78.1314L46.1999 76.1314ZM6.08879 77.2135L5.94261 5.82695L3.94261 5.83104L4.08879 77.2176L6.08879 77.2135ZM4.94466 6.82899L46.0579 6.74481L46.0538 4.74481L4.94056 4.829L4.94466 6.82899ZM45.0558 5.74686L45.0812 18.1492L47.0812 18.1451L47.0558 5.74276L45.0558 5.74686ZM46.0792 17.1471L20.1026 17.2003L20.1067 19.2003L46.0832 19.1471L46.0792 17.1471ZM19.1047 18.2024L19.1368 33.8762L21.1368 33.8721L21.1047 18.1983L19.1047 18.2024ZM20.1388 34.8741L44.3087 34.8246L44.3046 32.8246L20.1347 32.8741L20.1388 34.8741ZM43.3067 33.8267L43.3321 46.229L45.3321 46.2249L45.3067 33.8226L43.3067 33.8267ZM44.33 45.2269L20.1601 45.2764L20.1642 47.2764L44.3341 47.2269L44.33 45.2269ZM19.1622 46.2785L19.1999 64.6866L21.1999 64.6825L21.1622 46.2744L19.1622 46.2785ZM20.2019 65.6846L46.1784 65.6314L46.1743 63.6314L20.1978 63.6846L20.2019 65.6846ZM45.1764 64.6335L45.202 77.1334L47.202 77.1293L47.1764 64.6294L45.1764 64.6335ZM104.936 26.1809L104.269 26.9259L104.272 26.9293L104.936 26.1809ZM110.362 77L110.364 78L111.364 77.9979L111.362 76.9979L110.362 77ZM95.4695 77.0305L94.4695 77.0325L94.4715 78.0325L95.4715 78.0305L95.4695 77.0305ZM93.2376 36.3123L92.4214 36.8902L92.4278 36.899L93.2376 36.3123ZM74.864 77.0727L74.8661 78.0727L75.8661 78.0706L75.864 77.0706L74.864 77.0727ZM59.9715 77.1032L58.9715 77.1052L58.9735 78.1052L59.9735 78.1032L59.9715 77.1032ZM59.8597 22.5135L59.8577 21.5135L58.8577 21.5155L58.8597 22.5155L59.8597 22.5135ZM71.2366 22.4902L72.1973 22.2126L71.9882 21.4886L71.2346 21.4902L71.2366 22.4902ZM73.2529 29.4685L72.2922 29.746L72.5014 30.47L73.2549 30.4685L73.2529 29.4685ZM74.083 29.4668L74.085 30.4668L74.6413 30.4656L74.9337 29.9924L74.083 29.4668ZM78.4193 24.868L77.8628 24.0371L77.8557 24.042L78.4193 24.868ZM84.2245 22.2682L83.9731 21.3004L83.9695 21.3013L84.2245 22.2682ZM90.8654 22.4246C96.5026 22.413 100.936 23.9423 104.269 26.9259L105.603 25.4359C101.826 22.0539 96.8778 20.4123 90.8614 20.4246L90.8654 22.4246ZM104.272 26.9293C107.529 29.8152 109.275 34.5561 109.289 41.4064L111.289 41.4023C111.274 34.2552 109.452 28.8472 105.599 25.4325L104.272 26.9293ZM109.289 41.4064L109.362 77.002L111.362 76.9979L111.289 41.4023L109.289 41.4064ZM110.36 76L95.4674 76.0305L95.4715 78.0305L110.364 78L110.36 76ZM96.4695 77.0284L96.4042 45.1437L94.4042 45.1478L94.4695 77.0325L96.4695 77.0284ZM96.4042 45.1437C96.396 41.1429 95.6608 37.9527 94.0475 35.7257L92.4278 36.899C93.6872 38.6374 94.3964 41.3362 94.4042 45.1478L96.4042 45.1437ZM94.0538 35.7345C92.4156 33.4206 89.8515 32.3407 86.5889 32.3474L86.593 34.3474C89.385 34.3417 91.2521 35.2384 92.4215 36.8902L94.0538 35.7345ZM86.5889 32.3474C81.7914 32.3572 78.2726 34.014 76.3922 37.534L78.1563 38.4764C79.5836 35.8046 82.2759 34.3562 86.593 34.3474L86.5889 32.3474ZM76.3922 37.534C74.6253 40.8416 73.7994 45.4956 73.8114 51.3912L75.8114 51.3871C75.7996 45.6291 76.6156 41.3604 78.1563 38.4764L76.3922 37.534ZM73.8114 51.3912L73.864 77.0747L75.864 77.0706L75.8114 51.3871L73.8114 51.3912ZM74.862 76.0727L59.9694 76.1032L59.9735 78.1032L74.8661 78.0727L74.862 76.0727ZM60.9715 77.1011L60.8597 22.5114L58.8597 22.5155L58.9715 77.1052L60.9715 77.1011ZM59.8618 23.5135L71.2387 23.4902L71.2346 21.4902L59.8577 21.5135L59.8618 23.5135ZM70.2759 22.7677L72.2922 29.746L74.2136 29.1909L72.1973 22.2126L70.2759 22.7677ZM73.2549 30.4685L74.085 30.4668L74.0809 28.4668L73.2508 28.4685L73.2549 30.4685ZM74.9337 29.9924C76.033 28.2132 77.3831 26.7855 78.9828 25.6941L77.8557 24.042C76.0097 25.3014 74.469 26.9395 73.2322 28.9411L74.9337 29.9924ZM78.9757 25.6989C80.6356 24.5874 82.4682 23.7656 84.4795 23.2352L83.9695 21.3013C81.7512 21.8863 79.7137 22.7977 77.8628 24.0371L78.9757 25.6989ZM84.4759 23.2361C86.5396 22.7001 88.6687 22.4291 90.8654 22.4246L90.8614 20.4246C88.5009 20.4294 86.204 20.7209 83.9731 21.3004L84.4759 23.2361ZM124.221 96.9912L124.771 96.1559L124.77 96.1549L124.221 96.9912ZM130.275 72.8576L130.509 73.8301L133.464 73.1211L130.665 71.9367L130.275 72.8576ZM126.265 69.692L125.47 70.2992L125.477 70.3076L126.265 69.692ZM126.342 59.7797L127.094 60.4393L127.102 60.4304L126.342 59.7797ZM131.559 55.6675L132.066 56.5293L133.768 55.5278L131.953 54.7486L131.559 55.6675ZM124.71 49.7245L123.857 50.2452L123.861 50.2526L124.71 49.7245ZM124.768 29.9489L123.92 29.4189L123.918 29.4216L124.768 29.9489ZM132.372 23.5368L131.969 22.6213L131.966 22.6228L132.372 23.5368ZM151.753 21.9347L151.61 22.9243L151.614 22.9249L151.753 21.9347ZM154.049 22.3206L153.808 23.2912L153.928 23.3208L154.051 23.3206L154.049 22.3206ZM173.092 22.2816L174.092 22.2795L174.09 21.2795L173.09 21.2816L173.092 22.2816ZM173.107 29.8499L173.358 30.8179L174.109 30.6233L174.107 29.8479L173.107 29.8499ZM164.567 32.0647L164.316 31.0967L162.97 31.4457L163.729 32.6106L164.567 32.0647ZM160.803 53.9963L161.43 54.7759L161.43 54.7753L160.803 53.9963ZM143.821 58.9139L143.767 59.9124L143.795 59.9139L143.823 59.9139L143.821 58.9139ZM138.938 58.5332L139.041 57.5386L138.638 57.4966L138.32 57.747L138.938 58.5332ZM137.232 60.3922L136.374 59.8795L137.232 60.3922ZM137.533 64.249L136.895 65.0185L136.918 65.0376L136.942 65.0553L137.533 64.249ZM140.27 65.3176L140.06 66.2955L140.076 66.2987L140.091 66.3015L140.27 65.3176ZM167.817 69.4605L167.184 70.2339L167.187 70.2371L167.817 69.4605ZM164.6 95.639L164.048 94.8049L164.045 94.8065L164.6 95.639ZM151.454 90.1971L151.206 89.2282L151.199 89.2301L151.192 89.2321L151.454 90.1971ZM157.356 87.353L156.693 86.6039L156.684 86.6128L157.356 87.353ZM158.17 79.7341L158.876 79.0256L158.17 79.7341ZM154.554 78.0814L154.356 79.0616L154.36 79.0624L154.554 78.0814ZM135.756 78.5105L135.382 77.5828L135.375 77.5857L135.756 78.5105ZM132.343 80.9589L131.565 80.3299L131.561 80.3357L131.556 80.3416L132.343 80.9589ZM134.02 89.5004L133.508 90.359L133.514 90.3627L134.02 89.5004ZM150.78 47.2297L151.579 47.8304L150.78 47.2297ZM150.652 32.8256L149.874 33.4538L149.881 33.4621L149.888 33.4704L150.652 32.8256ZM138.445 32.8506L139.213 33.4923L139.219 33.4847L138.445 32.8506ZM138.426 47.255L137.636 47.8685L137.644 47.8777L138.426 47.255ZM141.708 99.9593C134.183 99.9747 128.58 98.6636 124.771 96.1559L123.671 97.8264C127.946 100.641 134.002 101.975 141.712 101.959L141.708 99.9593ZM124.77 96.1549C121.041 93.7104 119.202 90.3167 119.193 85.8687L117.193 85.8727C117.203 90.995 119.383 95.015 123.673 97.8275L124.77 96.1549ZM119.193 85.8687C119.186 82.8083 120.128 80.3058 121.987 78.2906L120.517 76.9343C118.284 79.3546 117.185 82.3575 117.193 85.8727L119.193 85.8687ZM121.987 78.2906C123.859 76.2616 126.666 74.7519 130.509 73.8301L130.042 71.8852C125.946 72.8677 122.737 74.5278 120.517 76.9343L121.987 78.2906ZM130.665 71.9367C129.308 71.3625 128.103 70.4208 127.053 69.0765L125.477 70.3076C126.712 71.8882 128.18 73.057 129.886 73.7786L130.665 71.9367ZM127.06 69.0849C126.031 67.7393 125.549 66.3698 125.546 64.9572L123.546 64.9613C123.55 66.8689 124.214 68.6546 125.47 70.2992L127.06 69.0849ZM125.546 64.9572C125.543 63.08 126.076 61.5998 127.094 60.4392L125.591 59.1202C124.206 60.699 123.542 62.6718 123.546 64.9613L125.546 64.9572ZM127.102 60.4304C128.208 59.1396 129.848 57.8347 132.066 56.5293L131.051 54.8056C128.718 56.1789 126.88 57.6154 125.583 59.129L127.102 60.4304ZM131.953 54.7486C129.28 53.6008 127.153 51.7593 125.56 49.1964L123.861 50.2526C125.664 53.1515 128.103 55.272 131.164 56.5864L131.953 54.7486ZM125.564 49.2037C124.008 46.6526 123.208 43.6172 123.2 40.0596L121.2 40.0637C121.208 43.9278 122.081 47.3344 123.857 50.2452L125.564 49.2037ZM123.2 40.0596C123.193 36.2344 124.016 33.0563 125.617 30.4763L123.918 29.4216C122.08 32.3824 121.192 35.9462 121.2 40.0637L123.2 40.0596ZM125.616 30.4789C127.252 27.8617 129.624 25.8499 132.777 24.4509L131.966 22.6228C128.485 24.1671 125.788 26.43 123.92 29.4189L125.616 30.4789ZM132.774 24.4524C135.965 23.0503 139.888 22.3242 144.576 22.3146L144.572 20.3146C139.69 20.3246 135.478 21.0799 131.969 22.6213L132.774 24.4524ZM144.576 22.3146C145.544 22.3126 146.683 22.3728 147.995 22.4982L148.185 20.5072C146.828 20.3776 145.622 20.3124 144.572 20.3146L144.576 22.3146ZM147.995 22.4982C149.317 22.6244 150.522 22.7666 151.61 22.9243L151.897 20.945C150.771 20.7818 149.533 20.636 148.185 20.5072L147.995 22.4982ZM151.614 22.9249C152.76 23.0863 153.475 23.2087 153.808 23.2912L154.29 21.3499C153.841 21.2388 153.026 21.1039 151.893 20.9444L151.614 22.9249ZM154.051 23.3206L173.094 23.2816L173.09 21.2816L154.047 21.3206L154.051 23.3206ZM172.092 22.2836L172.107 29.852L174.107 29.8479L174.092 22.2795L172.092 22.2836ZM172.856 28.8819L164.316 31.0967L164.818 33.0327L173.358 30.8179L172.856 28.8819ZM163.729 32.6106C164.459 33.7311 165.006 34.9251 165.372 36.1952L167.294 35.6418C166.873 34.1791 166.242 32.8039 165.405 31.5188L163.729 32.6106ZM165.372 36.1952C165.738 37.4658 165.925 38.821 165.928 40.265L167.928 40.2609C167.924 38.6451 167.715 37.104 167.294 35.6418L165.372 36.1952ZM165.928 40.265C165.939 45.8605 164.006 50.1349 160.176 53.2173L161.43 54.7753C165.791 51.2653 167.94 46.3842 167.928 40.2609L165.928 40.265ZM160.177 53.2167C156.35 56.2913 150.939 57.8993 143.819 57.9139L143.823 59.9139C151.221 59.8987 157.132 58.2283 161.43 54.7759L160.177 53.2167ZM143.876 57.9154C142.165 57.822 140.553 57.6964 139.041 57.5386L138.834 59.5278C140.382 59.6894 142.027 59.8175 143.767 59.9124L143.876 57.9154ZM138.32 57.747C137.499 58.3918 136.839 59.0997 136.374 59.8795L138.091 60.9049C138.404 60.381 138.881 59.8496 139.555 59.3195L138.32 57.747ZM136.374 59.8795C135.897 60.6772 135.649 61.5378 135.651 62.4462L137.651 62.4421C137.65 61.9183 137.789 61.4109 138.091 60.9049L136.374 59.8795ZM135.651 62.4462C135.653 63.4805 136.096 64.356 136.895 65.0185L138.172 63.4795C137.796 63.1678 137.651 62.8401 137.651 62.4421L135.651 62.4462ZM136.942 65.0553C137.723 65.6287 138.791 66.0238 140.06 66.2955L140.479 64.3398C139.338 64.0956 138.582 63.7783 138.125 63.4428L136.942 65.0553ZM140.091 66.3015C141.408 66.5413 143.003 66.6538 144.862 66.65L144.858 64.65C143.072 64.6537 141.607 64.5446 140.449 64.3338L140.091 66.3015ZM144.862 66.65L154.14 66.631L154.136 64.631L144.858 64.65L144.862 66.65ZM154.14 66.631C160.005 66.619 164.301 67.8718 167.184 70.2339L168.451 68.687C165.073 65.9187 160.249 64.6185 154.136 64.631L154.14 66.631ZM167.187 70.2371C170.065 72.5708 171.567 76.0273 171.577 80.7809L173.577 80.7768C173.566 75.5695 171.896 71.4804 168.447 68.6838L167.187 70.2371ZM171.577 80.7809C171.589 86.824 169.099 91.4635 164.048 94.8049L165.151 96.473C170.762 92.7613 173.591 87.4941 173.577 80.7768L171.577 80.7809ZM164.045 94.8065C158.979 98.1787 151.575 99.9391 141.708 99.9593L141.712 101.959C151.767 101.939 159.623 100.152 165.154 96.4715L164.045 94.8065ZM142.327 92.2412C145.934 92.2338 149.07 91.8804 151.716 91.1622L151.192 89.2321C148.762 89.8914 145.812 90.2341 142.323 90.2412L142.327 92.2412ZM151.701 91.166C154.365 90.4859 156.501 89.4803 158.028 88.0932L156.684 86.6128C155.481 87.7052 153.683 88.5958 151.206 89.2282L151.701 91.166ZM158.019 88.102C159.58 86.7209 160.402 85.0048 160.398 83.0011L158.398 83.0052C158.401 84.3868 157.862 85.5707 156.693 86.604L158.019 88.102ZM160.398 83.0011C160.395 81.4222 159.914 80.0595 158.876 79.0256L157.465 80.4427C158.058 81.033 158.395 81.8497 158.398 83.0052L160.398 83.0011ZM158.876 79.0256C157.899 78.053 156.479 77.4429 154.748 77.1004L154.36 79.0624C155.885 79.3643 156.876 79.856 157.465 80.4427L158.876 79.0256ZM154.752 77.1012C153.065 76.7605 150.94 76.6005 148.398 76.6057L148.402 78.6057C150.874 78.6006 152.851 78.7577 154.356 79.0616L154.752 77.1012ZM148.398 76.6057L140.684 76.6215L140.688 78.6215L148.402 78.6057L148.398 76.6057ZM140.684 76.6215C138.753 76.6255 136.981 76.9396 135.382 77.5828L136.129 79.4382C137.458 78.9036 138.972 78.625 140.688 78.6215L140.684 76.6215ZM135.375 77.5857C133.813 78.2285 132.53 79.1375 131.565 80.3299L133.12 81.5879C133.844 80.6935 134.836 79.9702 136.136 79.4353L135.375 77.5857ZM131.556 80.3416C130.57 81.5987 130.078 83.0559 130.081 84.6745L132.081 84.6704C132.078 83.4895 132.427 82.471 133.13 81.5762L131.556 80.3416ZM130.081 84.6745C130.086 87.1208 131.291 89.0349 133.508 90.359L134.533 88.6419C132.839 87.6302 132.084 86.3256 132.081 84.6704L130.081 84.6745ZM133.514 90.3627C135.718 91.6572 138.688 92.2487 142.327 92.2412L142.323 90.2412C138.865 90.2483 136.299 89.6792 134.527 88.6382L133.514 90.3627ZM144.635 50.8302C147.646 50.824 150.039 49.8804 151.579 47.8304L149.98 46.6289C148.924 48.0348 147.218 48.8249 144.631 48.8302L144.635 50.8302ZM151.579 47.8304C153.049 45.8745 153.725 43.2928 153.718 40.1924L151.718 40.1965C151.724 43.0206 151.107 45.129 149.98 46.6289L151.579 47.8304ZM153.718 40.1924C153.711 36.7918 153.003 34.061 151.417 32.1808L149.888 33.4704C151.043 34.8398 151.712 37.0215 151.718 40.1965L153.718 40.1924ZM151.431 32.1975C149.853 30.243 147.507 29.3418 144.591 29.3478L144.595 31.3478C147.082 31.3427 148.776 32.0933 149.874 33.4538L151.431 32.1975ZM144.591 29.3478C141.645 29.3538 139.275 30.2621 137.672 32.2165L139.219 33.4847C140.344 32.1132 142.071 31.3529 144.595 31.3478L144.591 29.3478ZM137.678 32.209C136.1 34.0956 135.403 36.8293 135.41 40.2299L137.41 40.2258C137.403 37.0508 138.063 34.8664 139.213 33.4922L137.678 32.209ZM135.41 40.2299C135.416 43.3351 136.121 45.9178 137.636 47.8685L139.216 46.6415C138.055 45.1471 137.416 43.0451 137.41 40.2258L135.41 40.2299ZM137.644 47.8777C139.252 49.8991 141.648 50.8363 144.635 50.8302L144.631 48.8302C142.083 48.8354 140.341 48.0557 139.209 46.6323L137.644 47.8777ZM197.129 76.8223L197.131 77.8223L198.131 77.8203L198.129 76.8203L197.129 76.8223ZM182.237 76.8528L181.237 76.8549L181.239 77.8549L182.239 77.8528L182.237 76.8528ZM182.081 0.876414L182.079 -0.123583L181.079 -0.121536L181.081 0.878462L182.081 0.876414ZM196.974 0.845919L197.974 0.843871L197.972 -0.156127L196.972 -0.154079L196.974 0.845919ZM197.127 75.8223L182.235 75.8528L182.239 77.8528L197.131 77.8223L197.127 75.8223ZM183.237 76.8508L183.081 0.874367L181.081 0.878462L181.237 76.8549L183.237 76.8508ZM182.083 1.87641L196.976 1.84592L196.972 -0.154079L182.079 -0.123583L182.083 1.87641ZM195.974 0.847967L196.129 76.8244L198.129 76.8203L197.974 0.843871L195.974 0.847967ZM227.584 22.17L228.584 22.168L228.582 21.168L227.582 21.17L227.584 22.17ZM227.696 76.7597L227.698 77.7597L228.698 77.7577L228.696 76.7577L227.696 76.7597ZM212.803 76.7902L211.803 76.7923L211.805 77.7923L212.805 77.7902L212.803 76.7902ZM212.691 22.2005L212.689 21.2005L211.689 21.2025L211.691 22.2025L212.691 22.2005ZM225.834 2.34932L225.289 3.18771L225.295 3.19165L225.301 3.1955L225.834 2.34932ZM225.858 13.8239L226.406 14.6601L226.412 14.6562L226.418 14.6522L225.858 13.8239ZM214.383 13.8474L213.818 14.6726L213.828 14.6793L213.838 14.6858L214.383 13.8474ZM214.36 2.37282L214.904 3.21176L214.908 3.20897L214.36 2.37282ZM226.584 22.172L226.696 76.7618L228.696 76.7577L228.584 22.168L226.584 22.172ZM227.694 75.7597L212.801 75.7902L212.805 77.7902L227.698 77.7597L227.694 75.7597ZM213.803 76.7882L213.691 22.1984L211.691 22.2025L211.803 76.7923L213.803 76.7882ZM212.693 23.2005L227.586 23.17L227.582 21.17L212.689 21.2005L212.693 23.2005ZM220.12 1.79852C222.172 1.79432 223.88 2.27143 225.289 3.18771L226.379 1.51094C224.594 0.35042 222.492 -0.206337 220.116 -0.201472L220.12 1.79852ZM225.301 3.1955C226.485 3.9406 227.233 5.42481 227.239 8.05935L229.239 8.05526C229.233 5.09085 228.378 2.76974 226.367 1.50315L225.301 3.1955ZM227.239 8.05935C227.244 10.6505 226.506 12.178 225.298 12.9956L226.418 14.6522C228.395 13.3149 229.245 10.998 229.239 8.05526L227.239 8.05935ZM225.309 12.9878C223.904 13.9098 222.198 14.3939 220.146 14.3981L220.15 16.3981C222.526 16.3932 224.626 15.8279 226.406 14.6601L225.309 12.9878ZM220.146 14.3981C218.059 14.4024 216.335 13.9238 214.928 13.009L213.838 14.6858C215.626 15.8478 217.745 16.403 220.15 16.3981L220.146 14.3981ZM214.948 13.0222C213.765 12.2126 213.033 10.6871 213.028 8.08845L211.028 8.09255C211.034 11.0278 211.872 13.3401 213.818 14.6726L214.948 13.0222ZM213.028 8.08845C213.022 5.44614 213.753 3.95816 214.904 3.21175L213.816 1.53389C211.845 2.81211 211.022 5.13592 211.028 8.09255L213.028 8.08845ZM214.908 3.20897C216.312 2.28844 218.033 1.8028 220.12 1.79852L220.116 -0.201472C217.711 -0.196548 215.594 0.367339 213.811 1.53667L214.908 3.20897ZM278.805 69.868L277.978 69.3053L277.977 69.3076L278.805 69.868ZM271.053 75.6944L271.408 76.6293L271.416 76.6263L271.053 75.6944ZM248.351 76.9616L248.175 77.946L248.177 77.9464L248.351 76.9616ZM240.142 74.537L239.142 74.539L239.144 75.2087L239.764 75.4624L240.142 74.537ZM240.117 62.2323L240.526 61.3197L239.114 60.687L239.117 62.2344L240.117 62.2323ZM249.645 65.5331L249.396 66.5016L249.407 66.5043L249.645 65.5331ZM264.831 65.502L265.397 66.3262L265.402 66.3231L264.831 65.502ZM265.942 59.6404L265.106 60.1883L265.119 60.2096L265.134 60.2302L265.942 59.6404ZM262.714 57.1567L262.222 58.027L262.228 58.0307L262.235 58.0343L262.714 57.1567ZM254.894 53.5106L255.281 52.5885L255.279 52.5875L254.894 53.5106ZM246.438 49.1822L245.882 50.0135L245.888 50.0173L246.438 49.1822ZM241.545 44.0165L240.657 44.4769L240.662 44.4855L240.666 44.4941L241.545 44.0165ZM245.803 24.9647L246.349 25.8021L246.351 25.8009L245.803 24.9647ZM271.236 22.0806L271.02 23.057L271.022 23.0575L271.236 22.0806ZM280.764 25.3326L281.688 25.7165L282.058 24.825L281.18 24.4233L280.764 25.3326ZM276.294 36.084L275.898 37.0022L276.829 37.4035L277.218 36.4679L276.294 36.084ZM268.622 33.2188L268.324 34.1732L268.327 34.1743L268.622 33.2188ZM255.595 38.0306L254.819 38.6614L254.828 38.6723L254.837 38.683L255.595 38.0306ZM258.92 40.3188L258.46 41.2069L258.471 41.2124L258.482 41.2176L258.92 40.3188ZM266.202 43.4777L266.58 42.5518L266.578 42.5511L266.202 43.4777ZM274.267 47.4651L273.745 48.3183L273.754 48.3236L274.267 47.4651ZM279.551 52.5812L278.695 53.0995L278.699 53.1055L279.551 52.5812ZM280.422 60.4408C280.429 63.9896 279.597 66.9264 277.978 69.3053L279.632 70.4306C281.518 67.6591 282.43 64.3097 282.422 60.4367L280.422 60.4408ZM277.977 69.3076C276.392 71.6499 273.988 73.4791 270.69 74.7625L271.416 76.6263C275.013 75.2263 277.777 73.1712 279.633 70.4283L277.977 69.3076ZM270.698 74.7595C267.398 76.0126 263.231 76.6635 258.164 76.6739L258.168 78.6739C263.388 78.6632 267.812 77.9945 271.408 76.6293L270.698 74.7595ZM258.164 76.6739C254.395 76.6816 251.185 76.4463 248.524 75.9768L248.177 77.9464C250.987 78.4423 254.321 78.6818 258.168 78.6739L258.164 76.6739ZM248.526 75.9772C245.899 75.5079 243.231 74.7208 240.521 73.6115L239.764 75.4624C242.592 76.6205 245.396 77.4498 248.175 77.946L248.526 75.9772ZM241.142 74.5349L241.117 62.2303L239.117 62.2344L239.142 74.539L241.142 74.5349ZM239.708 63.1449C242.729 64.4982 245.958 65.6166 249.396 66.5015L249.895 64.5647C246.558 63.7057 243.436 62.6235 240.526 61.3197L239.708 63.1449ZM249.407 66.5043C252.879 67.3564 255.958 67.7897 258.634 67.7843L258.63 65.7843C256.163 65.7893 253.252 65.3885 249.884 64.5619L249.407 66.5043ZM258.634 67.7843C261.575 67.7782 263.901 67.3543 265.397 66.3262L264.265 64.6779C263.29 65.3475 261.484 65.7784 258.63 65.7843L258.634 67.7843ZM265.402 66.3231C266.906 65.2768 267.732 63.8437 267.728 62.0781L265.728 62.0822C265.73 63.1161 265.291 63.9642 264.26 64.681L265.402 66.3231ZM267.728 62.0781C267.726 60.9619 267.4 59.9416 266.75 59.0505L265.134 60.2302C265.528 60.7693 265.727 61.3755 265.728 62.0822L267.728 62.0781ZM266.779 59.0924C266.143 58.1227 264.873 57.1965 263.194 56.2792L262.235 58.0343C263.88 58.933 264.761 59.6627 265.106 60.1883L266.779 59.0924ZM263.207 56.2864C261.491 55.3156 258.84 54.0818 255.281 52.5885L254.507 54.4327C258.051 55.9197 260.613 57.1166 262.222 58.027L263.207 56.2864ZM255.279 52.5875C251.895 51.1777 249.137 49.7625 246.988 48.3472L245.888 50.0173C248.173 51.5226 251.052 52.993 254.51 54.4337L255.279 52.5875ZM246.994 48.351C244.923 46.9658 243.412 45.3584 242.423 43.5388L240.666 44.4941C241.834 46.6415 243.586 48.4779 245.882 50.0135L246.994 48.351ZM242.432 43.556C241.482 41.7234 240.973 39.3394 240.967 36.3516L238.967 36.3557C238.973 39.5528 239.516 42.2774 240.657 44.4769L242.432 43.556ZM240.967 36.3516C240.957 31.6111 242.759 28.1465 246.349 25.8021L245.256 24.1274C241.045 26.8771 238.956 31.0051 238.967 36.3557L240.967 36.3516ZM246.351 25.8009C250.07 23.3622 255.113 22.0882 261.568 22.075L261.564 20.075C254.869 20.0887 249.403 21.4079 245.254 24.1285L246.351 25.8009ZM261.568 22.075C264.886 22.0682 268.036 22.3967 271.02 23.057L271.452 21.1042C268.314 20.4099 265.017 20.068 261.564 20.075L261.568 22.075ZM271.022 23.0575C274.038 23.7177 277.147 24.7771 280.348 26.2419L281.18 24.4233C277.866 22.9067 274.622 21.7981 271.45 21.1037L271.022 23.0575ZM279.841 24.9487L275.371 35.7L277.218 36.4679L281.688 25.7165L279.841 24.9487ZM276.69 35.1657C273.958 33.9874 271.367 33.0192 268.917 32.2633L268.327 34.1743C270.698 34.9059 273.222 35.8478 275.898 37.0022L276.69 35.1657ZM268.921 32.2644C266.446 31.4904 263.919 31.1054 261.343 31.1107L261.347 33.1107C263.718 33.1058 266.043 33.4596 268.324 34.1732L268.921 32.2644ZM261.343 31.1107C259.103 31.1152 257.265 31.4146 255.945 32.1168L256.884 33.8825C257.776 33.4083 259.224 33.115 261.347 33.1107L261.343 31.1107ZM255.945 32.1168C255.265 32.4785 254.706 32.9629 254.32 33.589C253.934 34.2171 253.759 34.9301 253.76 35.6906L255.76 35.6866C255.759 35.2427 255.859 34.9053 256.024 34.6371C256.19 34.3669 256.459 34.109 256.884 33.8825L255.945 32.1168ZM253.76 35.6906C253.762 36.7988 254.12 37.8014 254.819 38.6614L256.371 37.3999C255.961 36.895 255.761 36.3362 255.76 35.6866L253.76 35.6906ZM254.837 38.683C255.556 39.5187 256.811 40.3533 258.46 41.2069L259.38 39.4306C257.771 38.5981 256.808 37.9074 256.353 37.3783L254.837 38.683ZM258.482 41.2176C260.174 42.0431 262.627 43.1061 265.826 44.4043L266.578 42.5511C263.392 41.2581 260.989 40.2153 259.358 39.4199L258.482 41.2176ZM265.824 44.4035C268.881 45.6512 271.519 46.9571 273.745 48.3182L274.788 46.6119C272.451 45.1829 269.713 43.8306 266.58 42.5518L265.824 44.4035ZM273.754 48.3236C275.911 49.6117 277.548 51.2057 278.695 53.0995L280.406 52.063C279.071 49.8603 277.186 48.0435 274.779 46.6065L273.754 48.3236ZM278.699 53.1055C279.815 54.9172 280.416 57.3383 280.422 60.4408L282.422 60.4367C282.415 57.0939 281.769 54.2767 280.402 52.0569L278.699 53.1055ZM307.813 0.618952L308.813 0.616904L308.811 -0.383094L307.811 -0.381046L307.813 0.618952ZM307.568 23.8129L306.571 23.7352L306.57 23.7484L307.568 23.8129ZM307.188 28.9894L306.192 28.8951L306.089 29.9917L307.19 29.9894L307.188 28.9894ZM307.969 28.9878L307.971 29.9878L308.528 29.9867L308.82 29.5135L307.969 28.9878ZM312.11 24.3895L311.524 23.5791L311.516 23.5848L312.11 24.3895ZM334.08 23.0262L333.651 23.9294L333.659 23.9332L334.08 23.0262ZM340.929 29.5063L340.054 29.9896L340.056 29.9937L340.929 29.5063ZM343.467 76.5227L343.469 77.5227L344.469 77.5206L344.467 76.5206L343.467 76.5227ZM328.574 76.5532L327.574 76.5552L327.576 77.5552L328.576 77.5532L328.574 76.5532ZM312.62 34.9842L313.243 35.7667L313.252 35.7595L312.62 34.9842ZM308.971 41.0952L309.937 41.3523L309.938 41.3494L308.971 41.0952ZM307.969 76.5954L307.971 77.5954L308.971 77.5933L308.969 76.5933L307.969 76.5954ZM293.076 76.6259L292.076 76.6279L292.079 77.6279L293.079 77.6258L293.076 76.6259ZM292.921 0.649447L292.919 -0.350551L291.919 -0.348503L291.921 0.651495L292.921 0.649447ZM306.813 0.620999L306.845 16.0995L308.845 16.0954L308.813 0.616904L306.813 0.620999ZM306.845 16.0995C306.851 18.7774 306.759 21.3224 306.571 23.7352L308.565 23.8906C308.758 21.4197 308.851 18.8211 308.845 16.0954L306.845 16.0995ZM306.57 23.7484C306.412 26.1901 306.286 27.9023 306.192 28.8951L308.183 29.0837C308.281 28.058 308.408 26.3191 308.566 23.8773L306.57 23.7484ZM307.19 29.9894L307.971 29.9878L307.967 27.9878L307.186 27.9894L307.19 29.9894ZM308.82 29.5135C309.929 27.7183 311.226 26.2848 312.704 25.1942L311.516 23.5848C309.809 24.8445 308.345 26.4765 307.118 28.4622L308.82 29.5135ZM312.696 25.1998C314.226 24.0936 315.909 23.278 317.751 22.7522L317.201 20.8291C315.139 21.418 313.245 22.335 311.524 23.5792L312.696 25.1998ZM317.751 22.7522C319.605 22.2226 321.612 21.9521 323.775 21.9476L323.771 19.9476C321.442 19.9524 319.251 20.2438 317.201 20.8291L317.751 22.7522ZM323.775 21.9476C327.596 21.9398 330.879 22.6118 333.651 23.9293L334.509 22.123C331.416 20.653 327.828 19.9393 323.771 19.9476L323.775 21.9476ZM333.659 23.9332C336.39 25.2007 338.518 27.2076 340.054 29.9896L341.805 29.0229C340.073 25.8872 337.635 23.5739 334.501 22.1191L333.659 23.9332ZM340.056 29.9937C341.58 32.7242 342.385 36.3474 342.394 40.9291L344.394 40.925C344.384 36.1317 343.545 32.141 341.802 29.0188L340.056 29.9937ZM342.394 40.9291L342.467 76.5247L344.467 76.5206L344.394 40.925L342.394 40.9291ZM343.465 75.5227L328.572 75.5532L328.576 77.5532L343.469 77.5227L343.465 75.5227ZM329.574 76.5511L329.509 44.6664L327.509 44.6705L327.574 76.5552L329.574 76.5511ZM329.509 44.6664C329.501 40.6656 328.766 37.4754 327.152 35.2483L325.533 36.4217C326.792 38.1601 327.501 40.8589 327.509 44.6705L329.509 44.6664ZM327.152 35.2483C325.485 32.9463 322.929 31.8635 319.694 31.8701L319.698 33.8701C322.452 33.8644 324.328 34.7582 325.533 36.4217L327.152 35.2483ZM319.694 31.8701C316.549 31.8765 313.942 32.6173 311.989 34.2089L313.252 35.7595C314.743 34.5445 316.853 33.8759 319.698 33.8701L319.694 31.8701ZM311.997 34.2017C310.065 35.7392 308.754 37.9858 308.003 40.841L309.938 41.3494C310.608 38.798 311.73 36.9706 313.243 35.7667L311.997 34.2017ZM308.004 40.838C307.264 43.6196 306.908 46.9848 306.916 50.9139L308.916 50.9098C308.909 47.0915 309.256 43.9123 309.937 41.3523L308.004 40.838ZM306.916 50.9139L306.969 76.5974L308.969 76.5933L308.916 50.9098L306.916 50.9139ZM307.967 75.5954L293.074 75.6259L293.079 77.6258L307.971 77.5954L307.967 75.5954ZM294.076 76.6238L293.921 0.6474L291.921 0.651495L292.076 76.6279L294.076 76.6238ZM292.923 1.64945L307.815 1.61895L307.811 -0.381046L292.919 -0.350551L292.923 1.64945Z" fill="black"/>
</g>
<defs>
<filter id="filter0_d_2205_1256" x="0.933228" y="0.546265" width="346.583" height="108.693" filterUnits="userSpaceOnUse" color-interpolation-filters="sRGB">
<feFlood flood-opacity="0" result="BackgroundImageFix"/>
<feColorMatrix in="SourceAlpha" type="matrix" values="0 0 0 0 0 0 0 0 0 0 0 0 0 0 0 0 0 0 127 0" result="hardAlpha"/>
<feOffset dy="4"/>
<feGaussianBlur stdDeviation="2"/>
<feComposite in2="hardAlpha" operator="out"/>
<feColorMatrix type="matrix" values="0 0 0 0 0 0 0 0 0 0 0 0 0 0 0 0 0 0 0.25 0"/>
<feBlend mode="normal" in2="BackgroundImageFix" result="effect1_dropShadow_2205_1256"/>
<feBlend mode="normal" in="SourceGraphic" in2="effect1_dropShadow_2205_1256" result="shape"/>
</filter>
</defs>
</svg>
