<svg width="150" height="60" viewBox="0 0 507 111" fill="none" xmlns="http://www.w3.org/2000/svg">
<g filter="url(#filter0_d_2001_7025)">
<path d="M27.0713 6.76527C36.2835 6.74641 43.0096 8.71832 47.2495 12.681C51.4893 16.6111 53.6163 22.043 53.6305 28.9766C53.6369 32.1016 53.171 35.0973 52.2329 37.9638C51.2947 40.7978 49.7536 43.3237 47.6097 45.5417C45.4984 47.7595 42.6699 49.5231 39.1244 50.8325C35.5789 52.1093 31.2019 52.753 25.9936 52.7637L19.4995 52.777L19.5515 78.1675L4.41478 78.1985L4.2686 6.81197L27.0713 6.76527ZM26.3154 19.1692L19.4307 19.1833L19.4741 40.3747L24.4545 40.3645C27.2866 40.3587 29.7435 39.9793 31.8253 39.2263C33.9071 38.4733 35.516 37.2982 36.652 35.7008C37.7881 34.1034 38.3536 32.0515 38.3484 29.545C38.3412 26.0293 37.3593 23.4272 35.4027 21.7385C33.4461 20.0172 30.417 19.1608 26.3154 19.1692ZM115.589 50.5782C115.598 55.1355 114.988 59.1732 113.758 62.6914C112.561 66.2095 110.793 69.1916 108.454 71.6378C106.148 74.0514 103.352 75.8801 100.067 77.1238C96.8144 78.3674 93.1373 78.9934 89.0357 79.0018C85.1946 79.0097 81.6614 78.3984 78.4363 77.1681C75.2436 75.9376 72.4567 74.1204 70.0755 71.7164C67.7267 69.2798 65.8977 66.305 64.5884 62.7921C63.3117 59.2791 62.6687 55.2439 62.6593 50.6866C62.6469 44.632 63.7107 39.5028 65.8505 35.2992C67.9903 31.0956 71.0437 27.8992 75.0106 25.7101C78.9775 23.521 83.7115 22.4208 89.2128 22.4095C94.3235 22.3991 98.8505 23.4803 102.794 25.6532C106.77 27.8261 109.885 31.0098 112.139 35.2044C114.427 39.399 115.577 44.5236 115.589 50.5782ZM77.8449 50.6555C77.8522 54.2363 78.249 57.2465 79.0352 59.6863C79.8215 62.1261 81.0459 63.9628 82.7086 65.1964C84.3713 66.43 86.5373 67.044 89.2066 67.0386C91.8433 67.0332 93.9742 66.4103 95.5992 65.17C97.2568 63.9296 98.4575 62.088 99.2012 59.645C99.9775 57.202 100.362 54.1902 100.355 50.6094C100.347 46.9962 99.9504 44.0022 99.1643 41.6275C98.4107 39.2202 97.2026 37.416 95.5399 36.215C93.8773 35.014 91.7114 34.4162 89.0421 34.4216C85.1033 34.4297 82.2415 35.7865 80.4567 38.492C78.7044 41.1974 77.8338 45.2519 77.8449 50.6555ZM158.304 22.2681C159.053 22.2665 159.916 22.3136 160.893 22.4092C161.902 22.4723 162.716 22.5683 163.335 22.6972L162.24 36.6643C161.752 36.5026 161.052 36.3901 160.14 36.3268C159.261 36.231 158.496 36.1837 157.845 36.1851C155.924 36.189 154.053 36.437 152.231 36.929C150.442 37.4209 148.832 38.2217 147.402 39.3314C145.972 40.4086 144.835 41.8432 143.993 43.6353C143.183 45.3948 142.78 47.5603 142.785 50.1319L142.842 77.9151L127.95 77.9456L127.838 23.3558L139.117 23.3327L141.333 32.5079L142.066 32.5064C143.136 30.6488 144.467 28.9533 146.059 27.4201C147.684 25.8543 149.52 24.6135 151.569 23.6979C153.651 22.7496 155.896 22.273 158.304 22.2681ZM196.335 66.9168C197.963 66.9135 199.541 66.7475 201.071 66.4189C202.633 66.0901 204.178 65.6801 205.707 65.1887L205.73 76.2726C204.136 76.992 202.152 77.582 199.776 78.0426C197.433 78.5357 194.862 78.7851 192.063 78.7909C188.808 78.7975 185.877 78.2827 183.271 77.2464C180.697 76.1774 178.659 74.3424 177.156 71.7413C175.686 69.1076 174.946 65.447 174.936 60.7595L174.882 34.4412L167.753 34.4558L167.74 28.157L175.933 23.1597L180.207 11.6275L189.728 11.608L189.752 23.2291L205.035 23.1978L205.058 34.3794L189.775 34.4107L189.829 60.729C189.833 62.8123 190.422 64.3736 191.596 65.4129C192.803 66.4195 194.382 66.9208 196.335 66.9168ZM266.802 23.0713L266.914 77.661L255.488 77.6844L253.472 70.7061L252.691 70.7077C251.523 72.5656 250.061 74.0822 248.306 75.2577C246.55 76.4332 244.615 77.2998 242.501 77.8575C240.386 78.4152 238.189 78.6964 235.91 78.7011C232.004 78.7091 228.601 78.0324 225.701 76.6712C222.801 75.2774 220.534 73.1173 218.901 70.191C217.3 67.2645 216.494 63.4576 216.485 58.7701L216.412 23.1745L231.304 23.144L231.37 55.0287C231.378 58.9349 232.084 61.8794 233.487 63.8622C234.891 65.8451 237.123 66.8333 240.183 66.8271C243.21 66.8209 245.585 66.1324 247.308 64.7617C249.03 63.3584 250.23 61.3214 250.908 58.6508C251.619 55.9475 251.97 52.659 251.962 48.7853L251.91 23.1018L266.802 23.0713ZM298.555 101.62C290.938 101.635 285.108 100.313 281.067 97.6516C277.057 95.0231 275.048 91.3163 275.038 86.5311C275.031 83.2434 276.051 80.4906 278.097 78.2729C280.143 76.0551 283.151 74.4702 287.121 73.5181C285.589 72.8702 284.253 71.815 283.11 70.3524C281.968 68.8574 281.395 67.2798 281.392 65.6196C281.387 63.5363 281.986 61.8098 283.188 60.4402C284.389 59.038 286.128 57.6672 288.404 56.3279C285.537 55.0968 283.254 53.1158 281.556 50.3849C279.89 47.6539 279.053 44.433 279.046 40.722C279.038 36.7507 279.893 33.3798 281.613 30.6093C283.365 27.8063 285.9 25.6689 289.217 24.1973C292.567 22.7256 296.634 21.9848 301.419 21.975C302.429 21.9729 303.601 22.0356 304.935 22.1631C306.27 22.2906 307.491 22.4346 308.598 22.5951C309.738 22.7555 310.503 22.8841 310.894 22.981L329.937 22.942L329.953 30.5103L321.412 32.7251C322.196 33.9279 322.784 35.2125 323.178 36.5789C323.571 37.9453 323.77 39.3935 323.773 40.9234C323.785 46.7828 321.743 51.3605 317.648 54.6567C313.586 57.9202 307.925 59.5594 300.666 59.5743C298.941 59.4802 297.313 59.3533 295.783 59.1937C295.035 59.7811 294.467 60.4008 294.078 61.0526C293.688 61.7045 293.494 62.3885 293.496 63.1046C293.497 63.8207 293.791 64.4224 294.378 64.9094C294.998 65.3639 295.91 65.7201 297.115 65.9781C298.352 66.2034 299.883 66.3142 301.706 66.3105L310.983 66.2915C316.972 66.2792 321.532 67.5557 324.663 70.1209C327.825 72.686 329.412 76.4588 329.422 81.4393C329.435 87.8195 326.776 92.7728 321.445 96.2994C316.146 99.8259 308.516 101.599 298.555 101.62ZM299.17 91.9016C302.718 91.8944 305.761 91.5463 308.299 90.8575C310.869 90.2012 312.837 89.2532 314.201 88.0134C315.566 86.8062 316.246 85.3562 316.243 83.6635C316.24 82.2963 315.831 81.2067 315.016 80.3946C314.233 79.6149 313.027 79.064 311.399 78.7418C309.803 78.4195 307.752 78.261 305.246 78.2661L297.531 78.2819C295.708 78.2856 294.065 78.582 292.601 79.1709C291.17 79.7598 290.032 80.5759 289.188 81.6193C288.344 82.6953 287.923 83.9331 287.926 85.3328C287.93 87.3836 288.91 88.993 290.866 90.1608C292.854 91.3286 295.622 91.9089 299.17 91.9016ZM301.478 50.4906C304.277 50.4848 306.326 49.618 307.625 47.8901C308.923 46.1622 309.57 43.8171 309.564 40.8549C309.557 37.5671 308.868 35.1108 307.498 33.486C306.16 31.8286 304.14 31.0027 301.438 31.0082C298.704 31.0138 296.654 31.8481 295.291 33.511C293.927 35.1414 293.248 37.6005 293.255 40.8882C293.261 43.8505 293.933 46.1929 295.271 47.9154C296.642 49.6378 298.711 50.4962 301.478 50.4906ZM389.068 22.8209L389.18 77.4107L377.754 77.434L375.738 70.4557L374.956 70.4573C373.788 72.3152 372.327 73.8319 370.571 75.0073C368.816 76.1828 366.881 77.0494 364.766 77.6071C362.651 78.1648 360.454 78.446 358.176 78.4507C354.27 78.4587 350.866 77.7821 347.967 76.4208C345.067 75.027 342.8 72.8669 341.166 69.9406C339.565 67.0142 338.76 63.2072 338.75 58.5197L338.677 22.9241L353.57 22.8936L353.635 54.7783C353.643 58.6846 354.349 61.6291 355.753 63.6119C357.157 65.5947 359.388 66.583 362.448 66.5767C365.476 66.5705 367.851 65.882 369.573 64.5113C371.295 63.108 372.496 61.0711 373.174 58.4004C373.884 55.6971 374.236 52.4086 374.228 48.535L374.175 22.8514L389.068 22.8209ZM427.2 21.7174C432.246 21.7071 436.594 22.6748 440.243 24.6204C443.893 26.5335 446.715 29.3272 448.708 33.0016C450.701 36.6759 451.703 41.166 451.714 46.472L451.729 53.6985L416.524 53.7706C416.695 57.9695 417.955 61.271 420.304 63.675C422.685 66.0464 425.975 67.2279 430.174 67.2193C433.658 67.2121 436.847 66.8475 439.743 66.1254C442.638 65.4034 445.615 64.3231 448.671 62.8845L448.695 74.4079C445.996 75.7481 443.166 76.7304 440.205 77.355C437.277 77.9795 433.713 78.296 429.514 78.3046C424.045 78.3158 419.192 77.3166 414.957 75.3071C410.753 73.2975 407.443 70.2281 405.026 66.0989C402.641 61.9696 401.442 56.7638 401.429 50.4812C401.416 44.101 402.479 38.7928 404.619 34.5567C406.791 30.2879 409.812 27.0916 413.682 24.9678C417.551 22.8114 422.057 21.728 427.2 21.7174ZM427.32 32.3129C424.423 32.3189 422.016 33.2515 420.099 35.1109C418.215 36.9703 417.13 39.8859 416.845 43.8578L437.744 43.815C437.707 41.6016 437.296 39.633 436.511 37.9094C435.759 36.1856 434.617 34.8208 433.085 33.8148C431.585 32.8087 429.664 32.3081 427.32 32.3129ZM435.214 0.704896C436.161 2.20036 437.385 3.85801 438.886 5.67786C440.42 7.49764 441.986 9.26852 443.585 10.9905C445.183 12.7125 446.57 14.1745 447.744 15.3765L447.747 16.6949L437.884 16.7151C436.124 15.677 434.2 14.444 432.114 13.016C430.06 11.5553 428.169 9.93158 426.44 8.14475C424.686 9.93871 422.818 11.5539 420.835 12.9902C418.852 14.394 416.999 15.6511 415.276 16.7614L405.364 16.7817L405.361 15.4633C406.596 14.2238 408.009 12.7561 409.6 11.0601C411.192 9.33158 412.735 7.55433 414.228 5.72835C415.722 3.90237 416.923 2.23975 417.831 0.740491L435.214 0.704896ZM501.939 60.9688C501.947 64.6797 501.074 67.8228 499.322 70.398C497.602 72.9406 495.018 74.8827 491.57 76.2244C488.122 77.5336 483.827 78.1934 478.683 78.2039C474.875 78.2117 471.603 77.9743 468.867 77.4916C466.165 77.0089 463.429 76.2007 460.659 75.067L460.634 62.7623C463.599 64.0909 466.775 65.1912 470.162 66.0632C473.582 66.9025 476.578 67.3196 479.149 67.3143C482.046 67.3084 484.113 66.8809 485.348 66.0321C486.616 65.1506 487.248 64.0099 487.245 62.6102C487.243 61.6987 486.981 60.8855 486.459 60.1704C485.969 59.4227 484.893 58.5948 483.231 57.6868C481.569 56.7462 478.962 55.5308 475.411 54.0407C471.99 52.6154 469.172 51.1726 466.955 49.7123C464.771 48.2519 463.14 46.53 462.062 44.5465C461.016 42.5304 460.49 39.9761 460.483 36.8837C460.473 31.8381 462.419 28.0418 466.32 25.4948C470.253 22.9151 475.508 21.6185 482.083 21.6051C485.469 21.5981 488.692 21.9333 491.753 22.6107C494.847 23.2879 498.023 24.3719 501.281 25.8626L496.811 36.614C494.107 35.4477 491.55 34.4926 489.139 33.7488C486.761 33.005 484.336 32.6356 481.862 32.6407C479.681 32.6452 478.037 32.9415 476.932 33.5297C475.826 34.1179 475.275 35.0142 475.277 36.2186C475.279 37.0975 475.557 37.8782 476.112 38.5607C476.699 39.2431 477.808 40.0058 479.437 40.8488C481.099 41.6592 483.526 42.7122 486.719 44.0077C489.814 45.2709 492.502 46.6001 494.784 47.9951C497.065 49.3576 498.826 51.063 500.068 53.1113C501.309 55.127 501.933 57.7461 501.939 60.9688Z" fill="white"/>
<path d="M47.2495 12.681L46.5666 13.4116L46.5696 13.4144L47.2495 12.681ZM52.2329 37.9638L53.1822 38.2781L53.1833 38.2749L52.2329 37.9638ZM47.6097 45.5417L46.8907 44.8466L46.8854 44.8522L47.6097 45.5417ZM39.1244 50.8325L39.4633 51.7734L39.4709 51.7706L39.1244 50.8325ZM19.4995 52.777L19.4974 51.777L18.4974 51.779L18.4995 52.779L19.4995 52.777ZM19.5515 78.1675L19.5535 79.1675L20.5535 79.1655L20.5515 78.1655L19.5515 78.1675ZM4.41478 78.1985L3.41478 78.2006L3.41683 79.2006L4.41683 79.1985L4.41478 78.1985ZM4.2686 6.81197L4.26655 5.81197L3.26655 5.81402L3.2686 6.81402L4.2686 6.81197ZM19.4307 19.1833L19.4286 18.1833L18.4286 18.1853L18.4307 19.1853L19.4307 19.1833ZM19.4741 40.3747L18.4741 40.3767L18.4761 41.3767L19.4761 41.3746L19.4741 40.3747ZM35.4027 21.7385L34.7422 22.4893L34.7494 22.4955L35.4027 21.7385ZM27.0733 7.76527C36.1742 7.74664 42.5956 9.70019 46.5666 13.4116L47.9323 11.9504C43.4235 7.73645 36.3928 5.74618 27.0692 5.76528L27.0733 7.76527ZM46.5696 13.4144C50.5657 17.1185 52.6167 22.2628 52.6305 28.9786L54.6305 28.9745C54.6158 21.8232 52.4129 16.1037 47.9293 11.9476L46.5696 13.4144ZM52.6305 28.9786C52.6367 32.0011 52.1864 34.8909 51.2825 37.6528L53.1833 38.2749C54.1557 35.3037 54.6371 32.202 54.6305 28.9745L52.6305 28.9786ZM51.2836 37.6495C50.3941 40.3361 48.9338 42.733 46.8907 44.8467L48.3287 46.2367C50.5734 43.9144 52.1952 41.2595 53.1822 38.2781L51.2836 37.6495ZM46.8854 44.8522C44.9012 46.9365 42.2131 48.6258 38.778 49.8944L39.4709 51.7706C43.1268 50.4204 46.0956 48.5825 48.334 46.2312L46.8854 44.8522ZM38.7856 49.8916C35.3807 51.1178 31.1257 51.7532 25.9916 51.7637L25.9956 53.7637C31.2781 53.7529 35.7771 53.1008 39.4632 51.7733L38.7856 49.8916ZM25.9916 51.7637L19.4974 51.777L19.5015 53.777L25.9956 53.7637L25.9916 51.7637ZM18.4995 52.779L18.5515 78.1696L20.5515 78.1655L20.4995 52.7749L18.4995 52.779ZM19.5494 77.1675L4.41273 77.1985L4.41683 79.1985L19.5535 79.1675L19.5494 77.1675ZM5.41478 78.1965L5.2686 6.80992L3.2686 6.81402L3.41478 78.2006L5.41478 78.1965ZM4.27065 7.81197L27.0733 7.76527L27.0692 5.76528L4.26655 5.81197L4.27065 7.81197ZM26.3134 18.1692L19.4286 18.1833L19.4327 20.1833L26.3175 20.1692L26.3134 18.1692ZM18.4307 19.1853L18.4741 40.3767L20.4741 40.3726L20.4307 19.1812L18.4307 19.1853ZM19.4761 41.3746L24.4566 41.3645L24.4525 39.3645L19.472 39.3747L19.4761 41.3746ZM24.4566 41.3645C27.3732 41.3585 29.9497 40.9681 32.1654 40.1667L31.4851 38.2859C29.5373 38.9905 27.1999 39.3588 24.4525 39.3645L24.4566 41.3645ZM32.1654 40.1667C34.4128 39.3538 36.1981 38.0645 37.467 36.2804L35.8371 35.1212C34.8338 36.5319 33.4013 37.5929 31.4851 38.2859L32.1654 40.1667ZM37.467 36.2804C38.7537 34.4712 39.3539 32.1997 39.3484 29.5429L37.3484 29.547C37.3533 31.9033 36.8225 33.7356 35.8371 35.1212L37.467 36.2804ZM39.3484 29.5429C39.3409 25.847 38.3035 22.9212 36.0561 20.9815L34.7494 22.4955C36.4151 23.9332 37.3416 26.2117 37.3484 29.547L39.3484 29.5429ZM36.0632 20.9877C33.8435 19.035 30.5256 18.1606 26.3134 18.1692L26.3175 20.1692C30.3084 20.161 33.0487 20.9995 34.7422 22.4893L36.0632 20.9877ZM113.758 62.6914L112.814 62.3614L112.812 62.3692L113.758 62.6914ZM108.454 71.6378L107.731 70.9468L107.731 70.947L108.454 71.6378ZM100.067 77.1238L99.713 76.1885L99.7099 76.1897L100.067 77.1238ZM78.4363 77.1681L78.0766 78.1012L78.0798 78.1024L78.4363 77.1681ZM70.0755 71.7164L69.3554 72.4105L69.365 72.4202L70.0755 71.7164ZM64.5884 62.7921L63.6485 63.1337L63.6514 63.1413L64.5884 62.7921ZM102.794 25.6532L102.311 26.5291L102.314 26.5307L102.794 25.6532ZM112.139 35.2044L111.259 35.6779L111.262 35.6832L112.139 35.2044ZM82.7086 65.1964L83.3045 64.3933L82.7086 65.1964ZM95.5992 65.17L95.0001 64.3693L94.9925 64.3751L95.5992 65.17ZM99.2012 59.645L98.2481 59.3422L98.2446 59.3538L99.2012 59.645ZM99.1643 41.6275L98.21 41.9262L98.2124 41.934L98.215 41.9418L99.1643 41.6275ZM80.4567 38.492L79.6219 37.9413L79.6173 37.9483L80.4567 38.492ZM114.589 50.5803C114.598 55.0488 113.999 58.9707 112.814 62.3614L114.702 63.0214C115.977 59.3757 116.598 55.2222 116.589 50.5762L114.589 50.5803ZM112.812 62.3692C111.657 65.7632 109.96 68.6157 107.731 70.9468L109.177 72.3289C111.626 69.7675 113.465 66.6558 114.705 63.0136L112.812 62.3692ZM107.731 70.947C105.534 73.2469 102.866 74.9949 99.713 76.1885L100.421 78.059C103.839 76.7652 106.762 74.8559 109.177 72.3287L107.731 70.947ZM99.7099 76.1897C96.5889 77.383 93.035 77.9936 89.0337 78.0018L89.0378 80.0018C93.2396 79.9932 97.04 79.3518 100.424 78.0578L99.7099 76.1897ZM89.0337 78.0018C85.3013 78.0095 81.8912 77.4158 78.7927 76.2337L78.0798 78.1024C81.4317 79.3811 85.0879 80.0099 89.0378 80.0018L89.0337 78.0018ZM78.7959 76.235C75.7336 75.0547 73.0666 73.3151 70.7859 71.0127L69.365 72.4202C71.8468 74.9257 74.7537 76.8205 78.0766 78.1012L78.7959 76.235ZM70.7954 71.0224C68.5517 68.6948 66.792 65.8411 65.5255 62.4428L63.6514 63.1413C65.0034 66.769 66.9017 69.8648 69.3555 72.4104L70.7954 71.0224ZM65.5283 62.4505C64.2987 59.0672 63.6685 55.1506 63.6593 50.6846L61.6593 50.6887C61.6689 55.3372 62.3247 59.4909 63.6486 63.1337L65.5283 62.4505ZM63.6593 50.6846C63.6472 44.7447 64.6911 39.781 66.7417 35.7529L64.9593 34.8456C62.7302 39.2246 61.6467 44.5192 61.6593 50.6887L63.6593 50.6846ZM66.7417 35.7529C68.7947 31.7198 71.7095 28.674 75.4937 26.5856L74.5274 24.8346C70.3779 27.1245 67.186 30.4714 64.9593 34.8456L66.7417 35.7529ZM75.4937 26.5856C79.2848 24.4935 83.8461 23.4205 89.2149 23.4095L89.2108 21.4095C83.577 21.4211 78.6701 22.5485 74.5274 24.8346L75.4937 26.5856ZM89.2149 23.4095C94.1793 23.3994 98.5354 24.4484 102.311 26.5291L103.276 24.7774C99.1656 22.5122 94.4677 21.3988 89.2108 21.4095L89.2149 23.4095ZM102.314 26.5307C106.111 28.6058 109.091 31.6448 111.259 35.6779L113.02 34.731C110.679 30.3748 107.428 27.0464 103.273 24.7757L102.314 26.5307ZM111.262 35.6832C113.45 39.6975 114.577 44.6486 114.589 50.5803L116.589 50.5762C116.576 44.3985 115.403 39.1005 113.017 34.7257L111.262 35.6832ZM76.8449 50.6576C76.8523 54.304 77.2556 57.4243 78.0834 59.993L79.987 59.3796C79.2423 57.0687 78.8521 54.1685 78.8449 50.6535L76.8449 50.6576ZM78.0834 59.993C78.9182 62.5835 80.2463 64.6147 82.1128 65.9995L83.3045 64.3933C81.8456 63.3109 80.7247 61.6687 79.987 59.3796L78.0834 59.993ZM82.1128 65.9995C83.9926 67.3942 86.3866 68.0443 89.2086 68.0386L89.2045 66.0386C86.688 66.0437 84.75 65.4658 83.3045 64.3933L82.1128 65.9995ZM89.2086 68.0386C92.0001 68.0328 94.3625 67.3719 96.2059 65.9649L94.9925 64.3751C93.5858 65.4487 91.6864 66.0335 89.2045 66.0386L89.2086 68.0386ZM96.1984 65.9707C98.0627 64.5756 99.3669 62.5344 100.158 59.9363L98.2446 59.3538C97.5481 61.6415 96.451 63.2837 95.0001 64.3693L96.1984 65.9707ZM100.154 59.9479C100.972 57.3758 101.362 54.2538 101.355 50.6074L99.3546 50.6115C99.3618 54.1265 98.9834 57.0283 98.2482 59.3422L100.154 59.9479ZM101.355 50.6074C101.347 46.9309 100.944 43.8226 100.114 41.3132L98.215 41.9418C98.9565 44.1818 99.3473 47.0614 99.3546 50.6115L101.355 50.6074ZM100.119 41.3287C99.3157 38.7638 98.0001 36.7585 96.1255 35.4044L94.9544 37.0256C96.4051 38.0735 97.5057 39.6766 98.21 41.9262L100.119 41.3287ZM96.1255 35.4044C94.2468 34.0472 91.8568 33.4159 89.0401 33.4216L89.0442 35.4216C91.5659 35.4165 93.5078 35.9807 94.9544 37.0256L96.1255 35.4044ZM89.0401 33.4216C84.8486 33.4302 81.6328 34.8933 79.622 37.9413L81.2914 39.0426C82.8503 36.6797 85.358 35.4292 89.0442 35.4216L89.0401 33.4216ZM79.6173 37.9483C77.7104 40.8925 76.8336 45.1775 76.8449 50.6576L78.8449 50.6535C78.834 45.3264 79.6984 41.5022 81.296 39.0356L79.6173 37.9483ZM160.893 22.4092L160.795 23.4045L160.813 23.4062L160.83 23.4073L160.893 22.4092ZM163.335 22.6972L164.332 22.7753L164.4 21.8978L163.539 21.7182L163.335 22.6972ZM162.24 36.6643L161.926 37.6137L163.137 38.0148L163.237 36.7425L162.24 36.6643ZM160.14 36.3268L160.032 37.3209L160.051 37.3231L160.071 37.3244L160.14 36.3268ZM152.231 36.929L151.97 35.9635L151.966 35.9647L152.231 36.929ZM147.402 39.3314L148.004 40.1302L148.009 40.1259L148.015 40.1215L147.402 39.3314ZM143.993 43.6353L143.088 43.2098L143.084 43.217L143.993 43.6353ZM142.842 77.9151L142.844 78.9151L143.844 78.913L143.842 77.913L142.842 77.9151ZM127.95 77.9456L126.95 77.9476L126.952 78.9476L127.952 78.9456L127.95 77.9456ZM127.838 23.3558L127.836 22.3558L126.836 22.3579L126.838 23.3579L127.838 23.3558ZM139.117 23.3327L140.089 23.098L139.904 22.3311L139.115 22.3327L139.117 23.3327ZM141.333 32.5079L140.361 32.7427L140.546 33.5095L141.335 33.5079L141.333 32.5079ZM142.066 32.5064L142.068 33.5064L142.644 33.5052L142.932 33.0057L142.066 32.5064ZM146.059 27.4201L146.753 28.1404L146.753 28.1401L146.059 27.4201ZM151.569 23.6979L151.977 24.6109L151.984 24.6079L151.569 23.6979ZM158.307 23.2681C159.014 23.2666 159.842 23.3111 160.795 23.4045L160.99 21.414C159.99 21.316 159.093 21.2664 158.302 21.2681L158.307 23.2681ZM160.83 23.4073C161.817 23.4689 162.578 23.561 163.131 23.6762L163.539 21.7182C162.854 21.5756 161.987 21.4757 160.955 21.4112L160.83 23.4073ZM162.338 22.6191L161.243 36.5862L163.237 36.7425L164.332 22.7753L162.338 22.6191ZM162.555 35.715C161.948 35.5142 161.15 35.3945 160.209 35.3292L160.071 37.3244C160.953 37.3856 161.555 37.4909 161.926 37.6137L162.555 35.715ZM160.248 35.3327C159.345 35.2342 158.541 35.1836 157.843 35.1851L157.847 37.185C158.451 37.1838 159.177 37.2278 160.032 37.3209L160.248 35.3327ZM157.843 35.1851C155.836 35.1892 153.878 35.4484 151.97 35.9636L152.492 37.8944C154.228 37.4256 156.012 37.1888 157.847 37.185L157.843 35.1851ZM151.966 35.9647C150.053 36.4905 148.325 37.3494 146.789 38.5414L148.015 40.1215C149.339 39.0941 150.83 38.3513 152.496 37.8932L151.966 35.9647ZM146.8 38.5327C145.227 39.7178 143.992 41.2864 143.088 43.2098L144.898 44.0608C145.679 42.4001 146.717 41.0994 148.004 40.1302L146.8 38.5327ZM143.084 43.217C142.197 45.144 141.78 47.4626 141.785 50.134L143.785 50.1299C143.78 47.6581 144.168 45.6455 144.901 44.0536L143.084 43.217ZM141.785 50.134L141.842 77.9171L143.842 77.913L143.785 50.1299L141.785 50.134ZM142.84 76.9151L127.948 76.9456L127.952 78.9456L142.844 78.9151L142.84 76.9151ZM128.95 77.9435L128.838 23.3538L126.838 23.3579L126.95 77.9476L128.95 77.9435ZM127.84 24.3558L139.119 24.3327L139.115 22.3327L127.836 22.3558L127.84 24.3558ZM138.145 23.5675L140.361 32.7427L142.305 32.2731L140.089 23.098L138.145 23.5675ZM141.335 33.5079L142.068 33.5064L142.064 31.5064L141.331 31.5079L141.335 33.5079ZM142.932 33.0057C143.954 31.2319 145.227 29.6104 146.753 28.1404L145.365 26.6998C143.708 28.2962 142.318 30.0656 141.199 32.0072L142.932 33.0057ZM146.753 28.1401C148.295 26.6542 150.035 25.479 151.977 24.6109L151.161 22.7849C149.006 23.7481 147.073 25.0543 145.365 26.7001L146.753 28.1401ZM151.984 24.6079C153.929 23.7217 156.032 23.2727 158.307 23.2681L158.302 21.2681C155.759 21.2733 153.372 21.7775 151.155 22.7879L151.984 24.6079ZM201.071 66.4189L200.865 65.4403L200.861 65.4412L201.071 66.4189ZM205.707 65.1887L206.707 65.1866L206.704 63.8178L205.401 64.2366L205.707 65.1887ZM205.73 76.2726L206.141 77.1841L206.731 76.9178L206.73 76.2706L205.73 76.2726ZM199.776 78.0426L199.586 77.0609L199.578 77.0624L199.57 77.0641L199.776 78.0426ZM183.271 77.2464L182.887 78.1699L182.894 78.1728L182.901 78.1756L183.271 77.2464ZM177.156 71.7413L176.283 72.2287L176.286 72.2352L176.29 72.2415L177.156 71.7413ZM174.882 34.4412L175.882 34.4391L175.88 33.4391L174.88 33.4412L174.882 34.4412ZM167.753 34.4558L166.753 34.4578L166.755 35.4578L167.755 35.4558L167.753 34.4558ZM167.74 28.157L167.22 27.3032L166.739 27.5963L166.74 28.159L167.74 28.157ZM175.933 23.1597L176.454 24.0134L176.75 23.8327L176.871 23.5072L175.933 23.1597ZM180.207 11.6275L180.205 10.6275L179.51 10.6289L179.269 11.28L180.207 11.6275ZM189.728 11.608L190.728 11.6059L190.726 10.6059L189.726 10.608L189.728 11.608ZM189.752 23.2291L188.752 23.2311L188.754 24.2311L189.754 24.2291L189.752 23.2291ZM205.035 23.1978L206.035 23.1957L206.033 22.1957L205.033 22.1978L205.035 23.1978ZM205.058 34.3794L205.06 35.3794L206.06 35.3773L206.058 34.3773L205.058 34.3794ZM189.775 34.4107L189.773 33.4107L188.773 33.4127L188.775 34.4127L189.775 34.4107ZM191.596 65.4129L190.933 66.1616L190.944 66.1713L190.955 66.1807L191.596 65.4129ZM196.337 67.9168C198.032 67.9134 199.68 67.7405 201.281 67.3965L200.861 65.4412C199.402 65.7546 197.894 65.9137 196.333 65.9168L196.337 67.9168ZM201.277 67.3974C202.873 67.0616 204.451 66.6426 206.013 66.1407L205.401 64.2366C203.905 64.7175 202.393 65.1187 200.865 65.4403L201.277 67.3974ZM204.707 65.1907L204.73 76.2747L206.73 76.2706L206.707 65.1866L204.707 65.1907ZM205.318 75.3612C203.816 76.0391 201.912 76.6099 199.586 77.0609L199.967 79.0243C202.391 78.5542 204.456 77.9449 206.141 77.1841L205.318 75.3612ZM199.57 77.0641C197.305 77.5409 194.803 77.7852 192.061 77.7909L192.065 79.7909C194.922 79.785 197.562 79.5305 199.982 79.0212L199.57 77.0641ZM192.061 77.7909C188.913 77.7973 186.111 77.2995 183.64 76.3171L182.901 78.1756C185.643 79.2658 188.703 79.7977 192.065 79.7909L192.061 77.7909ZM183.654 76.3228C181.299 75.3449 179.424 73.6677 178.022 71.241L176.29 72.2415C177.893 75.0171 180.094 77.0099 182.887 78.1699L183.654 76.3228ZM178.029 71.2539C176.675 68.8287 175.945 65.3607 175.936 60.7574L173.936 60.7615C173.946 65.5333 174.696 69.3864 176.283 72.2287L178.029 71.2539ZM175.936 60.7574L175.882 34.4391L173.882 34.4432L173.936 60.7615L175.936 60.7574ZM174.88 33.4412L167.751 33.4558L167.755 35.4558L174.884 35.4412L174.88 33.4412ZM168.753 34.4537L168.74 28.1549L166.74 28.159L166.753 34.4578L168.753 34.4537ZM168.261 29.0107L176.454 24.0134L175.413 22.306L167.22 27.3032L168.261 29.0107ZM176.871 23.5072L181.144 11.975L179.269 11.28L174.996 22.8122L176.871 23.5072ZM180.209 12.6275L189.73 12.608L189.726 10.608L180.205 10.6275L180.209 12.6275ZM188.728 11.61L188.752 23.2311L190.752 23.227L190.728 11.6059L188.728 11.61ZM189.754 24.2291L205.037 24.1978L205.033 22.1978L189.75 22.2291L189.754 24.2291ZM204.035 23.1998L204.058 34.3814L206.058 34.3773L206.035 23.1957L204.035 23.1998ZM205.056 33.3794L189.773 33.4107L189.777 35.4107L205.06 35.3794L205.056 33.3794ZM188.775 34.4127L188.829 60.731L190.829 60.7269L190.775 34.4086L188.775 34.4127ZM188.829 60.731C188.833 63.001 189.481 64.8761 190.933 66.1616L192.259 64.6641C191.363 63.8711 190.832 62.6236 190.829 60.7269L188.829 60.731ZM190.955 66.1807C192.383 67.3716 194.208 67.9212 196.337 67.9168L196.333 65.9168C194.556 65.9205 193.222 65.4674 192.237 64.645L190.955 66.1807ZM266.802 23.0713L267.802 23.0692L267.8 22.0692L266.8 22.0713L266.802 23.0713ZM266.914 77.661L266.916 78.661L267.916 78.659L267.914 77.659L266.914 77.661ZM255.488 77.6844L254.528 77.962L254.737 78.686L255.491 78.6844L255.488 77.6844ZM253.472 70.7061L254.433 70.4285L254.224 69.7046L253.47 69.7061L253.472 70.7061ZM252.691 70.7077L252.689 69.7077L252.138 69.7088L251.844 70.1754L252.691 70.7077ZM242.501 77.8575L242.246 76.8906L242.501 77.8575ZM225.701 76.6712L225.268 77.5725L225.276 77.5764L225.701 76.6712ZM218.901 70.191L218.023 70.6709L218.028 70.6784L218.901 70.191ZM216.412 23.1745L216.41 22.1745L215.41 22.1765L215.412 23.1765L216.412 23.1745ZM231.304 23.144L232.304 23.1419L232.302 22.1419L231.302 22.144L231.304 23.144ZM233.487 63.8622L234.304 63.2844L233.487 63.8622ZM247.308 64.7617L247.93 65.5442L247.939 65.537L247.308 64.7617ZM250.908 58.6508L249.941 58.3965L249.939 58.4047L250.908 58.6508ZM251.91 23.1018L251.908 22.1018L250.908 22.1038L250.91 23.1038L251.91 23.1018ZM265.802 23.0733L265.914 77.6631L267.914 77.659L267.802 23.0692L265.802 23.0733ZM266.912 76.661L255.486 76.6844L255.491 78.6844L266.916 78.661L266.912 76.661ZM256.449 77.4068L254.433 70.4285L252.512 70.9837L254.528 77.962L256.449 77.4068ZM253.47 69.7061L252.689 69.7077L252.693 71.7077L253.474 71.7061L253.47 69.7061ZM251.844 70.1754C250.748 71.9192 249.384 73.3325 247.749 74.4268L248.862 76.0886C250.739 74.832 252.298 73.2119 253.538 71.24L251.844 70.1754ZM247.749 74.4268C246.089 75.5384 244.257 76.3601 242.246 76.8906L242.756 78.8244C244.974 78.2394 247.011 77.328 248.862 76.0886L247.749 74.4268ZM242.246 76.8906C240.217 77.4256 238.105 77.6966 235.908 77.7011L235.912 79.7011C238.273 79.6962 240.555 79.4048 242.756 78.8244L242.246 76.8906ZM235.908 77.7011C232.118 77.7088 228.866 77.0523 226.126 75.766L225.276 77.5764C228.336 79.0126 231.89 79.7093 235.912 79.7011L235.908 77.7011ZM226.134 75.7699C223.428 74.4693 221.312 72.4578 219.774 69.7035L218.028 70.6784C219.757 73.7768 222.174 76.0855 225.268 77.5725L226.134 75.7699ZM219.778 69.711C218.283 66.9785 217.494 63.3524 217.485 58.7681L215.485 58.7721C215.495 63.5628 216.316 67.5506 218.023 70.6709L219.778 69.711ZM217.485 58.7681L217.412 23.1724L215.412 23.1765L215.485 58.7721L217.485 58.7681ZM216.414 24.1745L231.307 24.144L231.302 22.144L216.41 22.1745L216.414 24.1745ZM230.304 23.146L230.37 55.0307L232.37 55.0266L232.304 23.1419L230.304 23.146ZM230.37 55.0307C230.378 59.0282 231.096 62.2146 232.671 64.4401L234.304 63.2844C233.072 61.5443 232.378 58.8417 232.37 55.0266L230.37 55.0307ZM232.671 64.4401C234.312 66.757 236.894 67.8338 240.185 67.8271L240.181 65.8271C237.352 65.8329 235.471 64.9332 234.304 63.2844L232.671 64.4401ZM240.185 67.8271C243.354 67.8206 245.976 67.0998 247.93 65.5442L246.685 63.9792C245.195 65.165 243.066 65.8212 240.181 65.8271L240.185 67.8271ZM247.939 65.537C249.865 63.9684 251.16 61.7248 251.878 58.8969L249.939 58.4047C249.301 60.9181 248.196 62.7485 246.676 63.9864L247.939 65.537ZM251.876 58.905C252.615 56.0929 252.971 52.7128 252.962 48.7833L250.962 48.7874C250.97 52.6052 250.623 55.8021 249.941 58.3965L251.876 58.905ZM252.962 48.7833L252.91 23.0997L250.91 23.1038L250.962 48.7874L252.962 48.7833ZM251.912 24.1018L266.804 24.0713L266.8 22.0713L251.908 22.1018L251.912 24.1018ZM281.067 97.6516L281.616 96.8164L281.615 96.8153L281.067 97.6516ZM287.121 73.5181L287.354 74.4905L290.31 73.7815L287.51 72.5971L287.121 73.5181ZM283.11 70.3524L282.316 70.9596L282.322 70.968L283.11 70.3524ZM283.188 60.4402L283.939 61.0997L283.947 61.0908L283.188 60.4402ZM288.404 56.3279L288.911 57.1897L290.613 56.1882L288.798 55.409L288.404 56.3279ZM281.556 50.3849L280.702 50.9056L280.706 50.913L281.556 50.3849ZM281.613 30.6093L280.765 30.0793L280.763 30.082L281.613 30.6093ZM289.217 24.1973L288.815 23.2817L288.811 23.2832L289.217 24.1973ZM308.598 22.5951L308.455 23.5847L308.459 23.5853L308.598 22.5951ZM310.894 22.981L310.654 23.9516L310.773 23.9812L310.896 23.981L310.894 22.981ZM329.937 22.942L330.937 22.94L330.935 21.94L329.935 21.942L329.937 22.942ZM329.953 30.5103L330.204 31.4783L330.954 31.2837L330.953 30.5083L329.953 30.5103ZM321.412 32.7251L321.161 31.7571L319.815 32.1061L320.574 33.271L321.412 32.7251ZM317.648 54.6567L318.275 55.4363L318.276 55.4357L317.648 54.6567ZM300.666 59.5743L300.612 60.5728L300.64 60.5743L300.668 60.5743L300.666 59.5743ZM295.783 59.1937L295.886 58.1991L295.483 58.157L295.165 58.4074L295.783 59.1937ZM294.078 61.0526L293.219 60.5399L294.078 61.0526ZM294.378 64.9094L293.74 65.679L293.763 65.698L293.787 65.7157L294.378 64.9094ZM297.115 65.9781L296.906 66.9559L296.921 66.9591L296.936 66.9619L297.115 65.9781ZM324.663 70.1209L324.029 70.8943L324.033 70.8975L324.663 70.1209ZM321.445 96.2994L320.893 95.4653L320.891 95.4669L321.445 96.2994ZM308.299 90.8575L308.051 89.8886L308.044 89.8905L308.037 89.8925L308.299 90.8575ZM314.201 88.0134L313.539 87.2644L313.529 87.2733L314.201 88.0134ZM315.016 80.3946L315.721 79.686L315.016 80.3946ZM311.399 78.7418L311.201 79.722L311.205 79.7228L311.399 78.7418ZM292.601 79.1709L292.228 78.2432L292.22 78.2461L292.601 79.1709ZM289.188 81.6193L288.411 80.9903L288.406 80.9962L288.401 81.0021L289.188 81.6193ZM290.866 90.1608L290.353 91.0194L290.359 91.0231L290.866 90.1608ZM307.625 47.8901L308.424 48.4909L307.625 47.8901ZM307.498 33.486L306.72 34.1142L306.726 34.1226L306.733 34.1308L307.498 33.486ZM295.291 33.511L296.058 34.1527L296.064 34.1451L295.291 33.511ZM295.271 47.9154L294.482 48.5289L294.489 48.5381L295.271 47.9154ZM298.553 100.62C291.029 100.635 285.425 99.324 281.616 96.8164L280.517 98.4869C284.792 101.301 290.847 102.635 298.557 102.62L298.553 100.62ZM281.615 96.8153C277.886 94.3708 276.047 90.9771 276.038 86.5291L274.038 86.5332C274.048 91.6554 276.228 95.6754 280.518 98.4879L281.615 96.8153ZM276.038 86.5291C276.032 83.4688 276.973 80.9662 278.832 78.951L277.362 77.5948C275.129 80.015 274.031 83.018 274.038 86.5332L276.038 86.5291ZM278.832 78.951C280.704 76.922 283.511 75.4123 287.354 74.4905L286.887 72.5457C282.792 73.5281 279.583 75.1882 277.362 77.5948L278.832 78.951ZM287.51 72.5971C286.153 72.0229 284.948 71.0812 283.898 69.7369L282.322 70.968C283.557 72.5487 285.026 73.7174 286.731 74.439L287.51 72.5971ZM283.905 69.7453C282.877 68.3997 282.394 67.0303 282.392 65.6176L280.392 65.6217C280.395 67.5293 281.059 69.315 282.316 70.9596L283.905 69.7453ZM282.392 65.6176C282.388 63.7404 282.921 62.2602 283.939 61.0996L282.436 59.7807C281.051 61.3594 280.387 63.3322 280.392 65.6217L282.392 65.6176ZM283.947 61.0908C285.053 59.8001 286.693 58.4951 288.911 57.1897L287.897 55.4661C285.563 56.8393 283.725 58.2758 282.428 59.7895L283.947 61.0908ZM288.798 55.409C286.125 54.2612 283.999 52.4197 282.405 49.8568L280.706 50.913C282.509 53.8119 284.948 55.9324 288.009 57.2468L288.798 55.409ZM282.409 49.8642C280.853 47.313 280.053 44.2777 280.046 40.72L278.046 40.7241C278.054 44.5883 278.927 47.9948 280.702 50.9056L282.409 49.8642ZM280.046 40.72C280.038 36.8948 280.861 33.7167 282.462 31.1367L280.763 30.082C278.925 33.0429 278.037 36.6066 278.046 40.7241L280.046 40.72ZM282.461 31.1394C284.097 28.5221 286.469 26.5103 289.622 25.1114L288.811 23.2832C285.33 24.8275 282.633 27.0904 280.765 30.0793L282.461 31.1394ZM289.619 25.1128C292.81 23.7108 296.734 22.9846 301.421 22.975L301.417 20.975C296.535 20.985 292.323 21.7404 288.815 23.2817L289.619 25.1128ZM301.421 22.975C302.39 22.973 303.528 23.0333 304.84 23.1586L305.03 21.1676C303.673 21.038 302.467 20.9729 301.417 20.975L301.421 22.975ZM304.84 23.1586C306.162 23.2848 307.367 23.427 308.455 23.5847L308.742 21.6054C307.616 21.4422 306.379 21.2964 305.03 21.1676L304.84 23.1586ZM308.459 23.5853C309.605 23.7467 310.321 23.8691 310.654 23.9516L311.135 22.0104C310.686 21.8992 309.871 21.7643 308.738 21.6048L308.459 23.5853ZM310.896 23.981L329.939 23.942L329.935 21.942L310.892 21.981L310.896 23.981ZM328.937 22.9441L328.953 30.5124L330.953 30.5083L330.937 22.94L328.937 22.9441ZM329.702 29.5424L321.161 31.7571L321.663 33.6931L330.204 31.4783L329.702 29.5424ZM320.574 33.271C321.304 34.3915 321.851 35.5855 322.217 36.8556L324.139 36.3022C323.718 34.8396 323.087 33.4643 322.25 32.1792L320.574 33.271ZM322.217 36.8556C322.583 38.1262 322.77 39.4814 322.773 40.9255L324.773 40.9214C324.769 39.3055 324.56 37.7644 324.139 36.3022L322.217 36.8556ZM322.773 40.9255C322.784 46.5209 320.851 50.7953 317.021 53.8777L318.276 55.4357C322.636 51.9258 324.785 47.0446 324.773 40.9214L322.773 40.9255ZM317.022 53.8771C313.195 56.9517 307.784 58.5597 300.664 58.5743L300.668 60.5743C308.067 60.5591 313.977 58.8887 318.275 55.4363L317.022 53.8771ZM300.721 58.5758C299.01 58.4824 297.399 58.3568 295.886 58.1991L295.679 60.1883C297.227 60.3498 298.872 60.4779 300.612 60.5728L300.721 58.5758ZM295.165 58.4074C294.344 59.0522 293.685 59.7601 293.219 60.5399L294.936 61.5654C295.249 61.0414 295.726 60.5101 296.401 59.9799L295.165 58.4074ZM293.219 60.5399C292.743 61.3376 292.494 62.1982 292.496 63.1066L294.496 63.1026C294.495 62.5787 294.634 62.0713 294.936 61.5654L293.219 60.5399ZM292.496 63.1066C292.498 64.1409 292.941 65.0164 293.74 65.679L295.017 64.1399C294.641 63.8283 294.497 63.5005 294.496 63.1026L292.496 63.1066ZM293.787 65.7157C294.568 66.2891 295.636 66.6842 296.906 66.9559L297.324 65.0002C296.184 64.756 295.427 64.4387 294.97 64.1032L293.787 65.7157ZM296.936 66.9619C298.253 67.2017 299.848 67.3143 301.708 67.3104L301.703 65.3105C299.917 65.3141 298.452 65.205 297.294 64.9942L296.936 66.9619ZM301.708 67.3104L310.985 67.2915L310.981 65.2915L301.703 65.3105L301.708 67.3104ZM310.985 67.2915C316.85 67.2794 321.146 68.5322 324.029 70.8943L325.296 69.3474C321.918 66.5791 317.095 65.2789 310.981 65.2915L310.985 67.2915ZM324.033 70.8975C326.91 73.2312 328.412 76.6878 328.422 81.4413L330.422 81.4372C330.411 76.2299 328.741 72.1408 325.292 69.3442L324.033 70.8975ZM328.422 81.4413C328.434 87.4844 325.944 92.1239 320.893 95.4653L321.996 97.1334C327.608 93.4217 330.436 88.1545 330.422 81.4372L328.422 81.4413ZM320.891 95.4669C315.824 98.8391 308.42 100.6 298.553 100.62L298.557 102.62C308.612 102.599 316.468 100.813 321.999 97.1319L320.891 95.4669ZM299.172 92.9016C302.78 92.8942 305.915 92.5408 308.561 91.8226L308.037 89.8925C305.608 90.5518 302.657 90.8945 299.168 90.9016L299.172 92.9016ZM308.546 91.8265C311.21 91.1463 313.347 90.1408 314.874 88.7536L313.529 87.2733C312.326 88.3656 310.528 89.2562 308.051 89.8886L308.546 91.8265ZM314.864 88.7624C316.425 87.3813 317.247 85.6652 317.243 83.6615L315.243 83.6656C315.246 85.0472 314.707 86.2311 313.539 87.2644L314.864 88.7624ZM317.243 83.6615C317.24 82.0826 316.759 80.7199 315.721 79.686L314.31 81.1031C314.903 81.6934 315.241 82.5101 315.243 83.6656L317.243 83.6615ZM315.721 79.686C314.745 78.7134 313.324 78.1033 311.593 77.7608L311.205 79.7228C312.731 80.0247 313.721 80.5164 314.31 81.1031L315.721 79.686ZM311.597 77.7616C309.91 77.421 307.785 77.2609 305.244 77.2661L305.248 79.2661C307.719 79.2611 309.696 79.4181 311.201 79.722L311.597 77.7616ZM305.244 77.2661L297.529 77.2819L297.533 79.2819L305.248 79.2661L305.244 77.2661ZM297.529 77.2819C295.598 77.2859 293.826 77.6 292.228 78.2432L292.974 80.0986C294.303 79.564 295.818 79.2854 297.533 79.2819L297.529 77.2819ZM292.22 78.2461C290.658 78.889 289.375 79.7979 288.411 80.9903L289.965 82.2483C290.689 81.3539 291.681 80.6306 292.981 80.0957L292.22 78.2461ZM288.401 81.0021C287.415 82.2591 286.923 83.7164 286.926 85.3349L288.926 85.3308C288.924 84.1499 289.273 83.1314 289.975 82.2366L288.401 81.0021ZM286.926 85.3349C286.931 87.7812 288.136 89.6953 290.353 91.0194L291.378 89.3023C289.684 88.2906 288.929 86.986 288.926 85.3308L286.926 85.3349ZM290.359 91.0231C292.563 92.3176 295.534 92.9091 299.172 92.9016L299.168 90.9016C295.71 90.9087 293.144 90.3396 291.372 89.2986L290.359 91.0231ZM301.48 51.4906C304.492 51.4844 306.884 50.5408 308.424 48.4909L306.825 47.2893C305.769 48.6952 304.063 49.4853 301.476 49.4906L301.48 51.4906ZM308.424 48.4909C309.894 46.535 310.57 43.9532 310.564 40.8528L308.564 40.8569C308.569 43.681 307.953 45.7894 306.825 47.2893L308.424 48.4909ZM310.564 40.8528C310.557 37.4523 309.848 34.7214 308.262 32.8413L306.733 34.1308C307.888 35.5002 308.557 37.6819 308.564 40.8569L310.564 40.8528ZM308.276 32.8579C306.698 30.9035 304.352 30.0022 301.436 30.0082L301.44 32.0082C303.927 32.0031 305.621 32.7537 306.72 34.1142L308.276 32.8579ZM301.436 30.0082C298.491 30.0142 296.12 30.9225 294.517 32.8769L296.064 34.1451C297.189 32.7736 298.916 32.0134 301.44 32.0082L301.436 30.0082ZM294.524 32.8694C292.945 34.756 292.248 37.4897 292.255 40.8903L294.255 40.8862C294.248 37.7112 294.908 35.5268 296.058 34.1526L294.524 32.8694ZM292.255 40.8903C292.261 43.9955 292.966 46.5782 294.482 48.5289L296.061 47.3019C294.9 45.8075 294.261 43.7055 294.255 40.8862L292.255 40.8903ZM294.489 48.5381C296.098 50.5596 298.494 51.4967 301.48 51.4906L301.476 49.4906C298.928 49.4958 297.187 48.7161 296.054 47.2927L294.489 48.5381ZM389.068 22.8209L390.068 22.8189L390.066 21.8189L389.066 21.8209L389.068 22.8209ZM389.18 77.4107L389.182 78.4106L390.182 78.4086L390.18 77.4086L389.18 77.4107ZM377.754 77.434L376.793 77.7116L377.002 78.4356L377.756 78.434L377.754 77.434ZM375.738 70.4557L376.698 70.1782L376.489 69.4542L375.736 69.4557L375.738 70.4557ZM374.956 70.4573L374.954 69.4573L374.403 69.4585L374.11 69.9251L374.956 70.4573ZM364.766 77.6071L364.511 76.6402L364.766 77.6071ZM347.967 76.4208L347.533 77.3222L347.542 77.3261L347.967 76.4208ZM341.166 69.9406L340.289 70.4206L340.293 70.428L341.166 69.9406ZM338.677 22.9241L338.675 21.9241L337.675 21.9262L337.677 22.9262L338.677 22.9241ZM353.57 22.8936L354.57 22.8916L354.568 21.8916L353.568 21.8936L353.57 22.8936ZM355.753 63.6119L356.569 63.0341L355.753 63.6119ZM369.573 64.5113L370.196 65.2938L370.205 65.2866L369.573 64.5113ZM373.174 58.4004L372.207 58.1462L372.205 58.1543L373.174 58.4004ZM374.175 22.8514L374.173 21.8514L373.173 21.8535L373.175 22.8535L374.175 22.8514ZM388.068 22.823L388.18 77.4127L390.18 77.4086L390.068 22.8189L388.068 22.823ZM389.178 76.4107L377.752 76.434L377.756 78.434L389.182 78.4106L389.178 76.4107ZM378.715 77.1565L376.698 70.1782L374.777 70.7333L376.793 77.7116L378.715 77.1565ZM375.736 69.4557L374.954 69.4573L374.958 71.4573L375.74 71.4557L375.736 69.4557ZM374.11 69.9251C373.013 71.6689 371.649 73.0821 370.015 74.1764L371.128 75.8383C373.004 74.5817 374.563 72.9616 375.803 70.9896L374.11 69.9251ZM370.015 74.1764C368.355 75.288 366.522 76.1098 364.511 76.6402L365.021 78.5741C367.239 77.9891 369.277 77.0776 371.128 75.8383L370.015 74.1764ZM364.511 76.6402C362.482 77.1752 360.371 77.4462 358.174 77.4507L358.178 79.4507C360.538 79.4459 362.82 79.1545 365.021 78.5741L364.511 76.6402ZM358.174 77.4507C354.383 77.4585 351.132 76.8019 348.391 75.5156L347.542 77.3261C350.601 78.7622 354.156 79.4589 358.178 79.4507L358.174 77.4507ZM348.4 75.5195C345.694 74.2189 343.577 72.2075 342.039 69.4532L340.293 70.428C342.023 73.5264 344.439 75.8351 347.533 77.3221L348.4 75.5195ZM342.043 69.4606C340.548 66.7281 339.76 63.102 339.75 58.5177L337.75 58.5218C337.76 63.3124 338.582 67.3002 340.289 70.4206L342.043 69.4606ZM339.75 58.5177L339.677 22.9221L337.677 22.9262L337.75 58.5218L339.75 58.5177ZM338.679 23.9241L353.572 23.8936L353.568 21.8936L338.675 21.9241L338.679 23.9241ZM352.57 22.8957L352.635 54.7804L354.635 54.7763L354.57 22.8916L352.57 22.8957ZM352.635 54.7804C352.643 58.7778 353.361 61.9642 354.937 64.1897L356.569 63.0341C355.337 61.294 354.643 58.5913 354.635 54.7763L352.635 54.7804ZM354.937 64.1897C356.577 66.5066 359.16 67.5834 362.45 67.5767L362.446 65.5767C359.617 65.5825 357.736 64.6828 356.569 63.0341L354.937 64.1897ZM362.45 67.5767C365.62 67.5702 368.241 66.8494 370.196 65.2938L368.95 63.7288C367.46 64.9147 365.332 65.5708 362.446 65.5767L362.45 67.5767ZM370.205 65.2866C372.13 63.718 373.425 61.4744 374.143 58.6465L372.205 58.1543C371.566 60.6677 370.461 62.4981 368.941 63.736L370.205 65.2866ZM374.141 58.6547C374.88 55.8425 375.236 52.4625 375.228 48.5329L373.228 48.537C373.236 52.3548 372.889 55.5517 372.207 58.1462L374.141 58.6547ZM375.228 48.5329L375.175 22.8494L373.175 22.8535L373.228 48.537L375.228 48.5329ZM374.177 23.8514L389.07 23.8209L389.066 21.8209L374.173 21.8514L374.177 23.8514ZM440.243 24.6204L439.773 25.5029L439.779 25.5061L440.243 24.6204ZM448.708 33.0016L447.829 33.4784L448.708 33.0016ZM451.729 53.6985L451.731 54.6985L452.731 54.6965L452.729 53.6965L451.729 53.6985ZM416.524 53.7706L416.522 52.7706L415.482 52.7728L415.525 53.8114L416.524 53.7706ZM420.304 63.675L419.589 64.3739L419.598 64.3836L420.304 63.675ZM448.671 62.8845L449.671 62.8825L449.668 61.3102L448.246 61.9797L448.671 62.8845ZM448.695 74.4079L449.14 75.3036L449.696 75.0272L449.695 74.4059L448.695 74.4079ZM440.205 77.355L439.999 76.3765L439.996 76.377L440.205 77.355ZM414.957 75.3071L414.525 76.2093L414.528 76.2106L414.957 75.3071ZM405.026 66.0989L404.16 66.599L404.163 66.6041L405.026 66.0989ZM404.619 34.5567L403.728 34.1032L403.727 34.1058L404.619 34.5567ZM413.682 24.9678L414.163 25.8444L414.168 25.8413L413.682 24.9678ZM420.099 35.1109L419.403 34.3931L419.397 34.3991L420.099 35.1109ZM416.845 43.8578L415.848 43.7863L415.771 44.86L416.847 44.8578L416.845 43.8578ZM437.744 43.815L437.746 44.815L438.761 44.813L438.744 43.7983L437.744 43.815ZM436.511 37.9094L435.594 38.3093L435.598 38.3165L435.601 38.3237L436.511 37.9094ZM433.085 33.8148L432.527 34.6452L432.536 34.6507L433.085 33.8148ZM435.214 0.704896L436.059 0.169864L435.764 -0.296231L435.212 -0.295102L435.214 0.704896ZM438.886 5.67786L438.115 6.31421L438.122 6.32229L438.886 5.67786ZM447.744 15.3765L448.744 15.3745L448.743 14.9683L448.459 14.6777L447.744 15.3765ZM447.747 16.6949L447.749 17.6949L448.749 17.6928L448.747 16.6928L447.747 16.6949ZM437.884 16.7151L437.376 17.5764L437.612 17.7156L437.886 17.7151L437.884 16.7151ZM432.114 13.016L431.535 13.8309L431.542 13.8361L431.549 13.8412L432.114 13.016ZM426.44 8.14475L427.159 7.44939L426.444 6.71055L425.725 7.44563L426.44 8.14475ZM420.835 12.9902L421.413 13.8064L421.422 13.8001L420.835 12.9902ZM415.276 16.7614L415.278 17.7614L415.571 17.7608L415.818 17.602L415.276 16.7614ZM405.364 16.7817L404.364 16.7837L404.366 17.7837L405.366 17.7817L405.364 16.7817ZM405.361 15.4633L404.653 14.7577L404.361 15.0512L404.361 15.4654L405.361 15.4633ZM409.6 11.0601L410.33 11.7444L410.336 11.7375L409.6 11.0601ZM414.228 5.72835L413.454 5.09519L414.228 5.72835ZM417.831 0.740491L417.829 -0.259507L417.267 -0.258356L416.976 0.222295L417.831 0.740491ZM427.202 22.7174C432.119 22.7074 436.297 23.65 439.773 25.5029L440.714 23.738C436.89 21.6995 432.373 20.7069 427.198 20.7174L427.202 22.7174ZM439.779 25.5061C443.251 27.3257 445.929 29.9758 447.829 33.4784L449.587 32.5247C447.501 28.6787 444.536 25.7414 440.708 23.7347L439.779 25.5061ZM447.829 33.4784C449.725 36.9728 450.703 41.2902 450.714 46.474L452.714 46.4699C452.703 41.0418 451.678 36.3789 449.587 32.5247L447.829 33.4784ZM450.714 46.474L450.729 53.7006L452.729 53.6965L452.714 46.4699L450.714 46.474ZM451.727 52.6985L416.522 52.7706L416.526 54.7706L451.731 54.6985L451.727 52.6985ZM415.525 53.8114C415.703 58.1929 417.027 61.7519 419.589 64.3738L421.019 62.9762C418.883 60.79 417.687 57.7461 417.523 53.7298L415.525 53.8114ZM419.598 64.3836C422.212 66.9863 425.782 68.2283 430.176 68.2193L430.172 66.2193C426.168 66.2275 423.158 65.1066 421.01 62.9665L419.598 64.3836ZM430.176 68.2193C433.727 68.212 436.999 67.8403 439.984 67.0957L439.501 65.1552C436.695 65.8547 433.588 66.2123 430.172 66.2193L430.176 68.2193ZM439.984 67.0957C442.951 66.356 445.989 65.2521 449.097 63.7893L448.246 61.9797C445.24 63.394 442.325 64.4508 439.501 65.1552L439.984 67.0957ZM447.671 62.8865L447.695 74.41L449.695 74.4059L449.671 62.8825L447.671 62.8865ZM448.25 73.5122C445.627 74.8147 442.877 75.7693 439.999 76.3765L440.411 78.3335C443.455 77.6916 446.365 76.6815 449.14 75.3036L448.25 73.5122ZM439.996 76.377C437.157 76.9825 433.667 77.2961 429.511 77.3046L429.516 79.3046C433.759 79.2959 437.396 78.9764 440.414 78.333L439.996 76.377ZM429.511 77.3046C424.167 77.3156 419.466 76.3395 415.385 74.4036L414.528 76.2106C418.919 78.2938 423.923 79.3161 429.516 79.3046L429.511 77.3046ZM415.388 74.4049C411.37 72.4839 408.208 69.5553 405.889 65.5937L404.163 66.6041C406.678 70.9008 410.136 74.111 414.525 76.2093L415.388 74.4049ZM405.892 65.5988C403.618 61.6617 402.442 56.6407 402.429 50.4792L400.429 50.4833C400.442 56.8868 401.664 62.2776 404.16 66.599L405.892 65.5988ZM402.429 50.4792C402.416 44.2046 403.463 39.0635 405.512 35.0075L403.727 34.1058C401.496 38.5222 400.416 43.9974 400.429 50.4833L402.429 50.4792ZM405.51 35.0102C407.6 30.9045 410.485 27.8633 414.163 25.8444L413.2 24.0912C409.14 26.3199 405.983 29.6713 403.728 34.1032L405.51 35.0102ZM414.168 25.8413C417.867 23.78 422.201 22.7277 427.202 22.7174L427.198 20.7174C421.913 20.7283 417.235 21.8429 413.195 24.0943L414.168 25.8413ZM427.318 31.3129C424.185 31.3193 421.522 32.3371 419.403 34.3932L420.795 35.8287C422.509 34.1659 424.66 33.3184 427.322 33.3129L427.318 31.3129ZM419.397 34.3991C417.27 36.4971 416.142 39.6905 415.848 43.7863L417.843 43.9294C418.119 40.0813 419.159 37.4434 420.801 35.8227L419.397 34.3991ZM416.847 44.8578L437.746 44.815L437.742 42.815L416.843 42.8578L416.847 44.8578ZM438.744 43.7983C438.705 41.4705 438.272 39.3629 437.421 37.495L435.601 38.3237C436.32 39.9031 436.709 41.7327 436.744 43.8318L438.744 43.7983ZM437.427 37.5094C436.6 35.6127 435.332 34.0943 433.633 32.9789L432.536 34.6507C433.901 35.5472 434.918 36.7586 435.594 38.3093L437.427 37.5094ZM433.642 32.9844C431.934 31.8386 429.802 31.3078 427.318 31.3129L427.322 33.3129C429.525 33.3084 431.236 33.7789 432.527 34.6452L433.642 32.9844ZM434.369 1.23993C435.345 2.78002 436.595 4.472 438.115 6.31418L439.658 5.04154C438.175 3.24402 436.978 1.62069 436.059 0.169864L434.369 1.23993ZM438.122 6.32229C439.666 8.15414 441.242 9.93701 442.852 11.6709L444.318 10.3102C442.73 8.60003 441.174 6.84113 439.651 5.03342L438.122 6.32229ZM442.852 11.6709C444.454 13.3968 445.847 14.8654 447.029 16.0754L448.459 14.6777C447.293 13.4836 445.912 12.0282 444.318 10.3102L442.852 11.6709ZM446.744 15.3786L446.747 16.6969L448.747 16.6928L448.744 15.3745L446.744 15.3786ZM447.745 15.6949L437.881 15.7151L437.886 17.7151L447.749 17.6949L447.745 15.6949ZM438.392 15.8538C436.655 14.8294 434.751 13.6089 432.679 12.1908L431.549 13.8412C433.65 15.279 435.592 16.5247 437.376 17.5764L438.392 15.8538ZM432.694 12.201C430.689 10.7754 428.845 9.19159 427.159 7.44939L425.722 8.84012C427.494 10.6716 429.432 12.3352 431.535 13.8309L432.694 12.201ZM425.725 7.44563C424.01 9.20012 422.184 10.7781 420.248 12.1804L421.422 13.8001C423.451 12.3297 425.362 10.6773 427.155 8.84388L425.725 7.44563ZM420.257 12.1741C418.284 13.571 416.443 14.8197 414.734 15.9208L415.818 17.602C417.555 16.4825 419.42 15.2171 421.413 13.8064L420.257 12.1741ZM415.274 15.7614L405.362 15.7817L405.366 17.7817L415.278 17.7614L415.274 15.7614ZM406.364 16.7796L406.361 15.4613L404.361 15.4654L404.364 16.7837L406.364 16.7796ZM406.07 16.169C407.313 14.9206 408.733 13.4454 410.33 11.7444L408.871 10.3758C407.284 12.0667 405.878 13.527 404.653 14.7577L406.07 16.169ZM410.336 11.7375C411.941 9.99452 413.496 8.20253 415.002 6.3615L413.454 5.09519C411.973 6.90613 410.443 8.66864 408.865 10.3828L410.336 11.7375ZM415.002 6.3615C416.516 4.51071 417.747 2.80914 418.687 1.25869L416.976 0.222295C416.099 1.67036 414.928 3.29403 413.454 5.09519L415.002 6.3615ZM417.833 1.74049L435.216 1.70489L435.212 -0.295102L417.829 -0.259507L417.833 1.74049ZM499.322 70.398L498.495 69.8354L498.493 69.8377L499.322 70.398ZM491.57 76.2244L491.925 77.1593L491.933 77.1563L491.57 76.2244ZM468.867 77.4916L468.692 78.476L468.694 78.4764L468.867 77.4916ZM460.659 75.067L459.659 75.0691L459.661 75.7388L460.28 75.9925L460.659 75.067ZM460.634 62.7623L461.043 61.8498L459.631 61.217L459.634 62.7644L460.634 62.7623ZM470.162 66.0632L469.913 67.0316L469.924 67.0343L470.162 66.0632ZM485.348 66.0321L485.914 66.8562L485.919 66.8531L485.348 66.0321ZM486.459 60.1704L485.622 60.7184L485.636 60.7397L485.651 60.7602L486.459 60.1704ZM483.231 57.6868L482.739 58.5571L482.745 58.5607L482.752 58.5643L483.231 57.6868ZM475.411 54.0407L475.798 53.1186L475.796 53.1176L475.411 54.0407ZM466.955 49.7123L466.399 50.5436L466.405 50.5473L466.955 49.7123ZM462.062 44.5465L461.174 45.007L461.178 45.0156L461.183 45.0241L462.062 44.5465ZM466.32 25.4948L466.866 26.3321L466.868 26.331L466.32 25.4948ZM491.753 22.6107L491.537 23.587L491.539 23.5875L491.753 22.6107ZM501.281 25.8626L502.205 26.2465L502.575 25.355L501.697 24.9533L501.281 25.8626ZM496.811 36.614L496.415 37.5322L497.345 37.9335L497.734 36.9979L496.811 36.614ZM489.139 33.7488L488.841 34.7032L488.844 34.7044L489.139 33.7488ZM476.112 38.5607L475.336 39.1915L475.345 39.2024L475.354 39.213L476.112 38.5607ZM479.437 40.8488L478.977 41.737L478.988 41.7424L478.999 41.7476L479.437 40.8488ZM486.719 44.0077L487.097 43.0819L487.095 43.0811L486.719 44.0077ZM494.784 47.9951L494.262 48.8483L494.271 48.8537L494.784 47.9951ZM500.068 53.1113L499.212 53.6295L499.216 53.6356L500.068 53.1113ZM500.939 60.9708C500.946 64.5197 500.114 67.4564 498.495 69.8354L500.148 70.9606C502.035 68.1891 502.947 64.8397 502.939 60.9667L500.939 60.9708ZM498.493 69.8377C496.909 72.1799 494.505 74.0091 491.207 75.2925L491.933 77.1563C495.53 75.7563 498.294 73.7012 500.15 70.9583L498.493 69.8377ZM491.215 75.2895C487.915 76.5426 483.748 77.1936 478.681 77.2039L478.685 79.2039C483.905 79.1932 488.329 78.5245 491.925 77.1593L491.215 75.2895ZM478.681 77.2039C474.912 77.2117 471.702 76.9763 469.041 76.5068L468.694 78.4764C471.504 78.9723 474.838 79.2118 478.685 79.2039L478.681 77.2039ZM469.043 76.5072C466.416 76.0379 463.748 75.2508 461.038 74.1416L460.28 75.9925C463.109 77.1505 465.913 77.9798 468.692 78.476L469.043 76.5072ZM461.659 75.065L461.634 62.7603L459.634 62.7644L459.659 75.0691L461.659 75.065ZM460.225 63.6749C463.245 65.0283 466.475 66.1466 469.913 67.0316L470.412 65.0947C467.075 64.2358 463.953 63.1536 461.043 61.8498L460.225 63.6749ZM469.924 67.0343C473.396 67.8864 476.475 68.3198 479.151 68.3143L479.147 66.3143C476.68 66.3193 473.769 65.9186 470.401 65.092L469.924 67.0343ZM479.151 68.3143C482.092 68.3083 484.418 67.8844 485.914 66.8562L484.782 65.2079C483.807 65.8775 482.001 66.3084 479.147 66.3143L479.151 68.3143ZM485.919 66.8531C487.423 65.8069 488.249 64.3737 488.245 62.6082L486.245 62.6122C486.247 63.6461 485.808 64.4943 484.777 65.211L485.919 66.8531ZM488.245 62.6082C488.243 61.492 487.917 60.4716 487.266 59.5806L485.651 60.7602C486.045 61.2994 486.244 61.9055 486.245 62.6122L488.245 62.6082ZM487.295 59.6224C486.66 58.6527 485.39 57.7266 483.711 56.8092L482.752 58.5643C484.397 59.4631 485.278 60.1927 485.622 60.7184L487.295 59.6224ZM483.724 56.8165C482.008 55.8457 479.357 54.6119 475.798 53.1186L475.024 54.9628C478.568 56.4497 481.13 57.6466 482.739 58.5571L483.724 56.8165ZM475.796 53.1176C472.412 51.7077 469.653 50.2925 467.505 48.8772L466.405 50.5473C468.69 52.0526 471.569 53.5231 475.027 54.9638L475.796 53.1176ZM467.511 48.881C465.439 47.4959 463.929 45.8884 462.94 44.0689L461.183 45.0241C462.351 47.1715 464.103 49.0079 466.399 50.5435L467.511 48.881ZM462.949 44.086C461.999 42.2534 461.49 39.8694 461.483 36.8816L459.483 36.8857C459.49 40.0829 460.033 42.8074 461.174 45.007L462.949 44.086ZM461.483 36.8816C461.474 32.1411 463.276 28.6765 466.866 26.3321L465.773 24.6574C461.561 27.4071 459.473 31.5352 459.483 36.8857L461.483 36.8816ZM466.868 26.331C470.587 23.8923 475.63 22.6183 482.085 22.6051L482.081 20.6051C475.386 20.6188 469.92 21.9379 465.771 24.6586L466.868 26.331ZM482.085 22.6051C485.403 22.5983 488.553 22.9268 491.537 23.587L491.969 21.6343C488.831 20.9399 485.534 20.598 482.081 20.6051L482.085 22.6051ZM491.539 23.5875C494.555 24.2477 497.663 25.3071 500.865 26.772L501.697 24.9533C498.383 23.4367 495.139 22.3281 491.967 21.6338L491.539 23.5875ZM500.358 25.4787L495.888 36.2301L497.734 36.9979L502.205 26.2465L500.358 25.4787ZM497.207 35.6958C494.475 34.5175 491.884 33.5492 489.434 32.7933L488.844 34.7044C491.215 35.436 493.739 36.3778 496.415 37.5322L497.207 35.6958ZM489.438 32.7944C486.963 32.0204 484.436 31.6354 481.86 31.6407L481.864 33.6407C484.235 33.6358 486.559 33.9896 488.841 34.7032L489.438 32.7944ZM481.86 31.6407C479.62 31.6453 477.782 31.9446 476.462 32.6469L477.401 34.4125C478.293 33.9383 479.741 33.645 481.864 33.6407L481.86 31.6407ZM476.462 32.6469C475.782 33.0085 475.222 33.4929 474.837 34.119C474.451 34.7472 474.276 35.4601 474.277 36.2207L476.277 36.2166C476.276 35.7727 476.376 35.4353 476.541 35.1672C476.707 34.8969 476.976 34.6391 477.401 34.4125L476.462 32.6469ZM474.277 36.2207C474.279 37.3288 474.637 38.3314 475.336 39.1915L476.888 37.9299C476.477 37.425 476.278 36.8663 476.277 36.2166L474.277 36.2207ZM475.354 39.213C476.073 40.0488 477.328 40.8834 478.977 41.737L479.896 39.9606C478.288 39.1282 477.325 38.4374 476.87 37.9083L475.354 39.213ZM478.999 41.7476C480.691 42.5731 483.144 43.6362 486.343 44.9343L487.095 43.0811C483.909 41.7882 481.506 40.7453 479.875 39.95L478.999 41.7476ZM486.341 44.9336C489.398 46.1812 492.036 47.4872 494.262 48.8483L495.305 47.142C492.968 45.7129 490.23 44.3606 487.097 43.0819L486.341 44.9336ZM494.271 48.8537C496.428 50.1418 498.065 51.7358 499.212 53.6295L500.923 52.593C499.588 50.3903 497.702 48.5735 495.296 47.1366L494.271 48.8537ZM499.216 53.6356C500.332 55.4472 500.933 57.8683 500.939 60.9708L502.939 60.9667C502.932 57.624 502.286 54.8067 500.919 52.587L499.216 53.6356Z" fill="black"/>
</g>
<defs>
<filter id="filter0_d_2001_7025" x="0.257874" y="0.568542" width="505.764" height="109.653" filterUnits="userSpaceOnUse" color-interpolation-filters="sRGB">
<feFlood flood-opacity="0" result="BackgroundImageFix"/>
<feColorMatrix in="SourceAlpha" type="matrix" values="0 0 0 0 0 0 0 0 0 0 0 0 0 0 0 0 0 0 127 0" result="hardAlpha"/>
<feOffset dy="4"/>
<feGaussianBlur stdDeviation="2"/>
<feComposite in2="hardAlpha" operator="out"/>
<feColorMatrix type="matrix" values="0 0 0 0 0 0 0 0 0 0 0 0 0 0 0 0 0 0 0.25 0"/>
<feBlend mode="normal" in2="BackgroundImageFix" result="effect1_dropShadow_2001_7025"/>
<feBlend mode="normal" in="SourceGraphic" in2="effect1_dropShadow_2001_7025" result="shape"/>
</filter>
</defs>
</svg>
